<?xml version="1.0" encoding="UTF-8" standalone="no"?>
<!-- Created with Inkscape (http://www.inkscape.org/) -->

<svg
   version="1.1"
   id="svg1"
   width="344.78134"
   height="313.15201"
   viewBox="0 0 344.78134 313.15201"
   xmlns="http://www.w3.org/2000/svg"
   xmlns:svg="http://www.w3.org/2000/svg">
  <defs
     id="defs1" />
  <g
     id="g1">
    <path
       id="path1"
       d="M 0,0 H 170.08086 L 85.04042,147.40332 Z"
       style="fill:none;stroke:#000000;stroke-width:1.19553;stroke-linecap:butt;stroke-linejoin:miter;stroke-miterlimit:10;stroke-dasharray:none;stroke-opacity:1"
       transform="matrix(1.3333333,0,0,-1.3333333,60.588,250.36133)" />
    <path
       id="path2"
       d="m 10.747359,-3.2698984 c 0,-0.2460938 -0.09375,-0.2578125 -0.304687,-0.2578125 -0.140625,0 -0.28125,0 -0.304688,0.1523437 -0.128906,2.1796875 -1.9804684,2.92968751 -3.2695309,2.92968751 -0.9257812,0 -2.1914062,-0.2578125 -3,-1.16015621 -0.4921875,-0.5507813 -0.9609375,-1.3359375 -0.9609375,-3.3164063 0,-1.40625 0.2226563,-2.4492187 0.890625,-3.2578125 0.9257813,-1.0664062 2.3554688,-1.21875 3.046875,-1.21875 1.078125,0 2.8125,0.609375 3.2343754,3.1289063 0.03516,0.1289062 0.164062,0.1289062 0.339843,0.1289062 0.328125,0 0.328125,-0.023437 0.328125,-0.375 v -3.1289062 c 0,-0.328125 0,-0.3632816 -0.316406,-0.3632816 L 9.3528281,-8.9769297 C 8.5559531,-9.6683359 7.5832969,-10.00818 6.5286094,-10.00818 c -3.4335938,0 -5.63671877,2.0742191 -5.63671877,5.0859378 0,2.953125 2.13281247,5.09765626 5.64843747,5.09765626 2.5546875,0 4.2070309,-1.75781246 4.2070309,-3.44531246 z m 8.522461,0.1289062 c 0,-1.9335937 -1.324218,-3.3515625 -3.574218,-3.3515625 -2.34375,0 -3.585938,1.4882813 -3.585938,3.3515625 0,1.875 1.324219,3.22265626 3.574219,3.22265626 2.332031,0 3.585937,-1.41796876 3.585937,-3.22265626 z m -1.722656,-0.140625 c 0,1.1835938 0,2.84765626 -1.851562,2.84765626 -1.863282,0 -1.863282,-1.67578126 -1.863282,-2.84765626 0,-0.6796875 0,-1.3945312 0.269532,-1.9101562 0.316406,-0.5742188 0.960937,-0.8320313 1.582031,-0.8320313 0.808594,0 1.335937,0.3867188 1.570312,0.7851563 0.292969,0.515625 0.292969,1.265625 0.292969,1.9570312 z M 28.343063,-3.671875e-4 V -0.62146094 H 27.358688 V -4.3948984 c 0,-1.359375 -0.585938,-2.0625 -2.167969,-2.0625 -1.03125,0 -1.921875,0.5039062 -2.414063,1.5820312 h -0.01172 v -1.5820312 l -2.425782,0.1171875 v 0.6210937 c 0.890625,0 0.996094,0 0.996094,0.5507813 v 4.54687496 H 20.339156 V -3.671875e-4 C 20.679,-0.02380469 21.71025,-0.02380469 22.108688,-0.02380469 c 0.398437,0 1.453125,0 1.78125,0.0234375025 V -0.62146094 H 22.893844 V -3.6683359 c 0,-1.5585938 1.148437,-2.3085938 2.074219,-2.3085938 0.527343,0 0.832031,0.3398438 0.832031,1.4296875 v 3.92578126 H 24.804 V -3.671875e-4 C 25.132125,-0.02380469 26.163375,-0.02380469 26.573531,-0.02380469 c 0.398438,0 1.441407,0 1.769532,0.0234375025 z M 34.518844,-1.9925547 c 0,-0.6914062 -0.375,-1.1601562 -0.667969,-1.4179687 -0.585937,-0.4921875 -1.066406,-0.5742188 -1.839844,-0.7265625 -0.925781,-0.1523438 -1.78125,-0.3046875 -1.78125,-0.9960938 0,-0.9375 1.277344,-0.9375 1.570313,-0.9375 1.59375,0 1.6875,1.0078125 1.710937,1.3710938 0.01172,0.1757812 0.128907,0.1757812 0.304688,0.1757812 0.292969,0 0.292969,-0.035156 0.292969,-0.3632812 v -1.2421875 c 0,-0.2695313 0,-0.3632813 -0.210938,-0.3632813 -0.08203,0 -0.117187,0 -0.328125,0.1289063 -0.05859,0.035156 -0.210937,0.140625 -0.292969,0.1757812 -0.398437,-0.2226562 -0.925781,-0.3046875 -1.441406,-0.3046875 -0.433594,0 -2.578125,0 -2.578125,1.8632813 0,1.5 1.769531,1.8164062 2.214844,1.8867187 0.386719,0.070312 0.867187,0.1640625 0.925781,0.1640625 0.574219,0.1289063 1.136719,0.4804688 1.136719,1.0898438 0,1.10156246 -1.300781,1.10156246 -1.605469,1.10156246 -0.726562,0 -1.628906,-0.234375 -2.027344,-1.61718746 -0.09375,-0.2929688 -0.105468,-0.3046875 -0.351562,-0.3046875 -0.292969,0 -0.292969,0.046875 -0.292969,0.375 v 1.65234371 c 0,0.26953125 0,0.36328125 0.210938,0.36328125 0.09375,0 0.128906,0 0.410156,-0.22265625 l 0.375,-0.26953125 c 0.644531,0.4921875 1.417969,0.4921875 1.675781,0.4921875 0.796875,0 2.589844,-0.1640625 2.589844,-2.07421876 z m 4.552734,1.9921875125 V -0.62146094 H 38.192672 V -6.4573984 l -2.4375,0.1171875 v 0.6210937 c 0.84375,0 0.9375,0 0.9375,0.5507813 v 4.54687496 h -0.984375 v 0.6210937525 c 0.328125,-0.0234375025 1.3125,-0.0234375025 1.710937,-0.0234375025 0.398438,0 1.3125,0 1.652344,0.0234375025 z M 38.356734,-8.7191172 c 0,-0.5859375 -0.480468,-1.03125 -1.03125,-1.03125 -0.585937,0 -1.042968,0.46875 -1.042968,1.03125 0,0.5859375 0.480468,1.03125 1.03125,1.03125 0.585937,0 1.042968,-0.46875 1.042968,-1.03125 z m 7.022461,6.7265625 c 0,-0.6914062 -0.375,-1.1601562 -0.667968,-1.4179687 -0.585938,-0.4921875 -1.066407,-0.5742188 -1.839844,-0.7265625 -0.925781,-0.1523438 -1.78125,-0.3046875 -1.78125,-0.9960938 0,-0.9375 1.277344,-0.9375 1.570312,-0.9375 1.59375,0 1.6875,1.0078125 1.710938,1.3710938 0.01172,0.1757812 0.128906,0.1757812 0.304687,0.1757812 0.292969,0 0.292969,-0.035156 0.292969,-0.3632812 v -1.2421875 c 0,-0.2695313 0,-0.3632813 -0.210937,-0.3632813 -0.08203,0 -0.117188,0 -0.328125,0.1289063 -0.05859,0.035156 -0.210938,0.140625 -0.292969,0.1757812 -0.398438,-0.2226562 -0.925781,-0.3046875 -1.441406,-0.3046875 -0.433594,0 -2.578125,0 -2.578125,1.8632813 0,1.5 1.769531,1.8164062 2.214843,1.8867187 0.386719,0.070312 0.867188,0.1640625 0.925782,0.1640625 0.574218,0.1289063 1.136718,0.4804688 1.136718,1.0898438 0,1.10156246 -1.300781,1.10156246 -1.605468,1.10156246 -0.726563,0 -1.628907,-0.234375 -2.027344,-1.61718746 -0.09375,-0.2929688 -0.105469,-0.3046875 -0.351563,-0.3046875 -0.292968,0 -0.292968,0.046875 -0.292968,0.375 v 1.65234371 c 0,0.26953125 0,0.36328125 0.210937,0.36328125 0.09375,0 0.128906,0 0.410156,-0.22265625 l 0.375,-0.26953125 c 0.644532,0.4921875 1.417969,0.4921875 1.675782,0.4921875 0.796875,0 2.589843,-0.1640625 2.589843,-2.07421876 z m 5.923828,0.2109375 v -0.7617187 h -0.609375 v 0.75 c 0,0.94921871 -0.421875,1.35937496 -0.867187,1.35937496 -0.867188,0 -0.867188,-0.96093746 -0.867188,-1.28906246 v -4.03125 h 2.074219 v -0.609375 h -2.074219 v -2.7421875 h -0.597656 c -0.01172,1.4179687 -0.703125,2.8359375 -2.121094,2.8828125 v 0.46875 h 1.160157 v 3.984375 c 0,1.52343746 1.171875,1.85156246 2.203125,1.85156246 1.066406,0 1.699218,-0.796875 1.699218,-1.86328126 z m 7.819336,0.1054688 c 0,-0.2226563 -0.222656,-0.2226563 -0.304687,-0.2226563 -0.234375,0 -0.246094,0.046875 -0.328125,0.234375 -0.375,0.93750001 -1.324219,1.23046876 -2.003906,1.23046876 -2.085938,0 -2.097657,-1.93359376 -2.097657,-2.74218746 h 4.3125 c 0.328125,0 0.421875,0 0.421875,-0.3515625 0,-0.4335938 -0.105468,-1.5117188 -0.761718,-2.1796875 -0.609375,-0.609375 -1.40625,-0.7851563 -2.238282,-0.7851563 -2.238281,0 -3.457031,1.453125 -3.457031,3.2695313 0,2.0039062 1.476563,3.30468746 3.644531,3.30468746 2.167969,0 2.8125,-1.51171876 2.8125,-1.75781246 z m -1.324218,-1.9101563 h -3.410157 c 0.02344,-0.5859375 0.03516,-1.1484375 0.339844,-1.6640625 0.269531,-0.4570312 0.773438,-0.7734375 1.394531,-0.7734375 1.535157,0 1.664063,1.7226563 1.675782,2.4375 z M 68.180953,-3.671875e-4 V -0.62146094 H 67.196578 V -4.3948984 c 0,-1.359375 -0.585937,-2.0625 -2.167969,-2.0625 -1.03125,0 -1.921875,0.5039062 -2.414062,1.5820312 h -0.01172 v -1.5820312 l -2.425781,0.1171875 v 0.6210937 c 0.890625,0 0.996094,0 0.996094,0.5507813 v 4.54687496 H 60.177047 V -3.671875e-4 C 60.516891,-0.02380469 61.548141,-0.02380469 61.946578,-0.02380469 c 0.398438,0 1.453125,0 1.78125,0.0234375025 V -0.62146094 H 62.731734 V -3.6683359 c 0,-1.5585938 1.148438,-2.3085938 2.074219,-2.3085938 0.527344,0 0.832031,0.3398438 0.832031,1.4296875 v 3.92578126 H 64.641891 V -3.671875e-4 C 64.970016,-0.02380469 66.001266,-0.02380469 66.411422,-0.02380469 c 0.398437,0 1.441406,0 1.769531,0.0234375025 z M 75.262008,-1.6761484 c 0,-0.1757813 -0.164063,-0.1757813 -0.304688,-0.1757813 -0.222656,0 -0.246093,0.011719 -0.316406,0.1875 -0.09375,0.2695313 -0.480469,1.23046876 -1.804687,1.23046876 -2.027344,0 -2.027344,-2.17968746 -2.027344,-2.82421876 0,-0.84375 0.02344,-2.71875 1.898437,-2.71875 0.105469,0 0.949219,0.023437 0.949219,0.09375 0,0 -0.01172,0.035156 -0.04687,0.046875 -0.04687,0.046875 -0.234375,0.2578125 -0.234375,0.609375 0,0.609375 0.492188,0.8554688 0.855469,0.8554688 0.292969,0 0.84375,-0.1875 0.84375,-0.8671875 0,-1.171875 -1.652344,-1.2539063 -2.425781,-1.2539063 -2.554688,0 -3.550782,1.6640625 -3.550782,3.3046875 0,1.9570313 1.359375,3.26953126 3.46875,3.26953126 2.25,0 2.695313,-1.66406246 2.695313,-1.75781246 z m 8.613281,-4.078125 v -0.609375 c -0.480469,0.023437 -0.539062,0.023437 -1.125,0.023437 l -1.242187,-0.023437 v 0.609375 c 0,0 0.691406,0 0.691406,0.1875 0,0.046875 -0.03516,0.1289062 -0.05859,0.1757812 l -1.675781,3.609375 -1.839844,-3.9726562 h 0.796875 v -0.609375 c -0.351562,0.023437 -1.324219,0.023437 -1.722656,0.023437 -0.421875,0 -1.265625,0 -1.640625,-0.023437 v 0.609375 h 0.925781 l 2.648438,5.7539062125 C 79.562789,0.17541406 79.36357,0.58557031 79.293258,0.76135156 78.98857,1.4058828 78.531539,2.3902578 77.523727,2.3902578 c -0.05859,0 -0.222657,0 -0.386719,-0.082031 0.03516,-0.011719 0.457031,-0.1875 0.457031,-0.7265625 0,-0.4804688 -0.339844,-0.77343754 -0.773437,-0.77343754 -0.445313,0 -0.785157,0.29296874 -0.785157,0.78515624 0,0.6679688 0.632813,1.2773438 1.488282,1.2773438 1.183593,0 1.957031,-1.0664063 2.238281,-1.6992188 l 3.058594,-6.609375 c 0.08203,-0.1992187 0.140625,-0.3164062 1.054687,-0.3164064 z m 0,0"
       style="fill:#000000;fill-opacity:1;fill-rule:nonzero;stroke:none"
       aria-label="Consistency"
       transform="matrix(1.3333333,0,0,1.3333333,4.428,275.96533)" />
    <path
       id="path3"
       d="M 11.612742,-7.03125e-5 V -0.62116406 H 10.253367 L 6.5736797,-9.7149141 C 6.4682109,-9.9727266 6.4447734,-10.043039 6.0932109,-10.043039 c -0.3515625,0 -0.3867187,0.070312 -0.4804687,0.3281249 l -3.5625,8.75390629 c -0.1054688,0.234375 -0.1054688,0.2578125 -0.5039063,0.3046875 -0.3515625,0.0351563 -0.4101562,0.0351563 -0.72656246,0.0351563 H 0.56196094 V -7.03125e-5 C 0.93696094,-0.02350781 1.7924297,-0.02350781 2.2025859,-0.02350781 c 0.3984375,0 1.4414063,0 1.7695313,0.0234374975 V -0.62116406 c -0.3164063,0 -0.8554688,0 -1.265625,-0.15234375 0.046875,-0.12890625 0.046875,-0.1640625 0.070312,-0.2109375 L 3.5385234,-2.8594453 h 3.84375 l 0.9023438,2.23828124 H 6.9369609 V -7.03125e-5 C 7.4057109,-0.02350781 8.7885234,-0.02350781 9.3393047,-0.02350781 c 0.4570312,0 1.9218753,0 2.2734373,0.0234374975 z M 7.1244609,-3.4688203 H 3.7846172 L 5.4603984,-7.6055391 Z M 18.556102,-5.7539766 v -0.609375 c -0.515625,0.023437 -0.539063,0.023437 -1.125,0.023437 l -1.242188,-0.023437 v 0.609375 c 0.398438,0 0.703125,0.070312 0.703125,0.1757813 0,0 0,0.023437 -0.07031,0.1757812 l -1.675782,3.6796875 -1.851562,-4.03125 h 0.796875 v -0.609375 c -0.339844,0.023437 -1.335938,0.023437 -1.722656,0.023437 -0.421875,0 -1.253907,0 -1.628907,-0.023437 v 0.609375 h 0.902344 l 2.53125,5.48437504 c 0.128906,0.2695312475 0.152344,0.33984375 0.492188,0.33984375 0.222656,0 0.339843,-0.0234375 0.46875,-0.31640625 l 2.367187,-5.17968754 c 0.09375,-0.2109375 0.152344,-0.328125 1.054688,-0.328125 z m 7.221679,5.43750004 c 0,-0.3046875 -0.128906,-0.3046875 -0.328125,-0.3046875 -0.902343,-0.0117188 -0.902343,-0.234375 -0.902343,-0.57421874 v -3.09375 c 0,-1.3242188 -1.042969,-2.203125 -3.070313,-2.203125 -0.808594,0 -2.496094,0.070312 -2.496094,1.265625 0,0.609375 0.457032,0.8671875 0.84375,0.8671875 0.433594,0 0.84375,-0.3046875 0.84375,-0.84375 0,-0.28125 -0.09375,-0.5390625 -0.339843,-0.6914063 0.46875,-0.1289062 0.820312,-0.1289062 1.089843,-0.1289062 0.972657,0 1.570313,0.5390625 1.570313,1.7226562 v 0.5742188 c -2.273438,0 -4.558594,0.6328125 -4.558594,2.2148437 0,1.31250004 1.664063,1.59375004 2.660156,1.59375004 1.101563,0 1.804688,-0.59765625 2.097657,-1.23046874 0,0.52734374 0,1.1484374875 1.441406,1.1484374875 h 0.738281 c 0.292969,0 0.410156,0 0.410156,-0.3164062475 z M 22.988719,-1.9922578 c 0,1.34765624 -1.207031,1.60546874 -1.664063,1.60546874 -0.703125,0 -1.300781,-0.46875 -1.300781,-1.13671874 0,-1.3007813 1.558594,-1.7460938 2.964844,-1.8164063 z M 29.861766,-7.03125e-5 V -0.62116406 H 28.982859 V -6.4571016 l -2.4375,0.1171875 v 0.6210938 c 0.84375,0 0.9375,0 0.9375,0.5507812 v 4.54687504 H 26.498484 V -7.03125e-5 c 0.328125,-0.0234374975 1.3125,-0.0234374975 1.710938,-0.0234374975 0.398437,0 1.3125,0 1.652344,0.0234374975 z M 29.146922,-8.7188203 c 0,-0.5859375 -0.480469,-1.03125 -1.03125,-1.03125 -0.585938,0 -1.042969,0.46875 -1.042969,1.03125 0,0.5859375 0.480469,1.03125 1.03125,1.03125 0.585938,0 1.042969,-0.46875 1.042969,-1.03125 z M 34.458445,-7.03125e-5 V -0.62116406 H 33.47407 V -9.9492891 l -2.484375,0.1054688 v 0.6210937 c 0.890625,0 0.984375,0 0.984375,0.5625 v 8.03906254 H 30.989695 V -7.03125e-5 C 31.31782,-0.02350781 32.337352,-0.02350781 32.72407,-0.02350781 c 0.386719,0 1.40625,0 1.734375,0.0234374975 z M 42.605906,-0.31647656 c 0,-0.3046875 -0.128906,-0.3046875 -0.328125,-0.3046875 -0.902343,-0.0117188 -0.902343,-0.234375 -0.902343,-0.57421874 v -3.09375 c 0,-1.3242188 -1.042969,-2.203125 -3.070313,-2.203125 -0.808594,0 -2.496094,0.070312 -2.496094,1.265625 0,0.609375 0.457032,0.8671875 0.84375,0.8671875 0.433594,0 0.84375,-0.3046875 0.84375,-0.84375 0,-0.28125 -0.09375,-0.5390625 -0.339843,-0.6914063 0.46875,-0.1289062 0.820312,-0.1289062 1.089843,-0.1289062 0.972657,0 1.570313,0.5390625 1.570313,1.7226562 v 0.5742188 c -2.273438,0 -4.558594,0.6328125 -4.558594,2.2148437 0,1.31250004 1.664063,1.59375004 2.660156,1.59375004 1.101563,0 1.804688,-0.59765625 2.097657,-1.23046874 0,0.52734374 0,1.1484374875 1.441406,1.1484374875 h 0.738281 c 0.292969,0 0.410156,0 0.410156,-0.3164062475 z M 39.816844,-1.9922578 c 0,1.34765624 -1.207031,1.60546874 -1.664063,1.60546874 -0.703125,0 -1.300781,-0.46875 -1.300781,-1.13671874 0,-1.3007813 1.558594,-1.7460938 2.964844,-1.8164063 z m 11.279297,-1.2070313 c 0,-1.96875 -1.347657,-3.2578125 -3.304688,-3.2578125 -0.855469,0 -1.523437,0.2695313 -2.109375,0.7382813 v -4.2304688 l -2.484375,0.1054688 v 0.6210937 c 0.890625,0 0.984375,0 0.984375,0.5625 V -7.03125e-5 h 0.609375 C 45.037547,-0.26960156 45.271922,-0.55085156 45.506297,-0.83210156 c 0.726562,0.76171875 1.523437,0.9140625 2.097656,0.9140625 1.980469,0 3.492188,-1.19531254 3.492188,-3.28125004 z m -1.722657,-0.011719 c 0,0.6445312 0,1.4648437 -0.339843,1.9921875 -0.445313,0.69140624 -1.113282,0.83203124 -1.582032,0.83203124 -0.972656,0 -1.5,-0.69140624 -1.699218,-1.00781254 v -3.6445312 c 0.503906,-0.6796875 1.242187,-0.9375 1.851562,-0.9375 1.769531,0 1.769531,1.8164062 1.769531,2.765625 z m 6.28418,3.2109374875 V -0.62116406 H 54.778758 V -6.4571016 l -2.4375,0.1171875 v 0.6210938 c 0.84375,0 0.9375,0 0.9375,0.5507812 v 4.54687504 H 52.294383 V -7.03125e-5 c 0.328125,-0.0234374975 1.3125,-0.0234374975 1.710937,-0.0234374975 0.398438,0 1.3125,0 1.652344,0.0234371975 z M 54.94282,-8.7188203 c 0,-0.5859375 -0.480468,-1.03125 -1.03125,-1.03125 -0.585937,0 -1.042968,0.46875 -1.042968,1.03125 0,0.5859375 0.480468,1.03125 1.03125,1.03125 0.585937,0 1.042968,-0.46875 1.042968,-1.03125 z M 60.251414,-7.03125e-5 V -0.62116406 H 59.267039 V -9.9492891 l -2.484375,0.1054688 v 0.6210937 c 0.890625,0 0.984375,0 0.984375,0.5625 v 8.03906254 H 56.782664 V -7.03125e-5 C 57.110789,-0.02350781 58.13032,-0.02350781 58.517039,-0.02350781 c 0.386719,0 1.40625,0 1.734375,0.0234374975 z m 4.385742,0 V -0.62116406 H 63.75825 V -6.4571016 l -2.4375,0.1171875 v 0.6210938 c 0.84375,0 0.9375,0 0.9375,0.5507812 v 4.54687504 H 61.273875 V -7.03125e-5 C 61.602,-0.02350781 62.586375,-0.02350781 62.984813,-0.02350781 c 0.398437,0 1.3125,0 1.652343,0.0234374975 z M 63.922313,-8.7188203 c 0,-0.5859375 -0.480469,-1.03125 -1.03125,-1.03125 -0.585938,0 -1.042969,0.46875 -1.042969,1.03125 0,0.5859375 0.480469,1.03125 1.03125,1.03125 0.585937,0 1.042969,-0.46875 1.042969,-1.03125 z m 6.577148,6.9375 v -0.7617188 h -0.609375 v 0.75 c 0,0.94921879 -0.421875,1.35937504 -0.867188,1.35937504 -0.867187,0 -0.867187,-0.96093754 -0.867187,-1.28906254 v -4.03125 h 2.074219 v -0.609375 h -2.074219 v -2.7421875 h -0.597656 c -0.01172,1.4179688 -0.703125,2.8359375 -2.121094,2.8828125 v 0.46875 h 1.160156 v 3.984375 c 0,1.52343754 1.171875,1.85156254 2.203125,1.85156254 1.066406,0 1.699219,-0.796875 1.699219,-1.86328124 z m 8.62793,-3.9726563 v -0.609375 c -0.480469,0.023437 -0.539063,0.023437 -1.125,0.023437 l -1.242188,-0.023437 v 0.609375 c 0,0 0.691406,0 0.691406,0.1875 0,0.046875 -0.03516,0.1289063 -0.05859,0.1757813 l -1.675782,3.609375 -1.839843,-3.9726563 h 0.796875 v -0.609375 c -0.351563,0.023437 -1.324219,0.023437 -1.722657,0.023437 -0.421875,0 -1.265625,0 -1.640625,-0.023437 v 0.609375 h 0.925782 L 74.885203,-7.03125e-5 C 74.814891,0.17571094 74.615672,0.58586719 74.545359,0.76164844 74.240672,1.4061797 73.783641,2.3905547 72.775828,2.3905547 c -0.05859,0 -0.222656,0 -0.386719,-0.082031 0.03516,-0.011719 0.457032,-0.1875 0.457032,-0.7265625 0,-0.4804687 -0.339844,-0.77343746 -0.773438,-0.77343746 -0.445312,0 -0.785156,0.29296876 -0.785156,0.78515626 0,0.6679687 0.632812,1.2773437 1.488281,1.2773437 1.183594,0 1.957031,-1.0664062 2.238281,-1.6992187 l 3.058594,-6.609375 c 0.08203,-0.1992188 0.140625,-0.3164063 1.054688,-0.3164066 z m 0,0"
       style="fill:#000000;fill-opacity:1;fill-rule:nonzero;stroke:none"
       aria-label="Availability"
       transform="matrix(1.3333333,0,0,1.3333333,234.364,276.004)" />
    <path
       id="path4"
       d="m 10.125945,-7.0653203 c 0,-1.5585938 -1.3593747,-2.7773438 -3.7265622,-2.7773438 H 0.55172656 v 0.6210938 H 2.0634453 v 8.60156249 H 0.55172656 v 0.62109375 c 0.41015625,-0.0234375 1.94531254,-0.0234375 2.46093754,-0.0234375 0.515625,0 2.0507812,0 2.4726562,0.0234375 V -0.62000781 H 3.9618828 V -4.3700078 h 2.4375 c 2.390625,0 3.7265622,-1.21875 3.7265622,-2.6953125 z m -2.0156247,0 c 0,0.9375 0,2.1445312 -2.2265625,2.1445312 H 3.8915703 v -4.3007812 h 1.9921875 c 2.2265625,0 2.2265625,1.171875 2.2265625,2.15625 z m 10.2363277,6.74999999 c 0,-0.3046875 -0.128906,-0.3046875 -0.328125,-0.3046875 -0.902343,-0.0117188 -0.902343,-0.234375 -0.902343,-0.57421879 v -3.09375 c 0,-1.3242187 -1.042969,-2.203125 -3.070313,-2.203125 -0.808594,0 -2.496094,0.070312 -2.496094,1.265625 0,0.609375 0.457032,0.8671875 0.84375,0.8671875 0.433594,0 0.84375,-0.3046875 0.84375,-0.84375 0,-0.28125 -0.09375,-0.5390625 -0.339843,-0.6914062 0.46875,-0.1289063 0.820312,-0.1289063 1.089843,-0.1289063 0.972657,0 1.570313,0.5390625 1.570313,1.7226563 v 0.5742187 c -2.273438,0 -4.558594,0.6328125 -4.558594,2.2148438 0,1.31249999 1.664063,1.59374999 2.660156,1.59374999 1.101563,0 1.804688,-0.59765625 2.097657,-1.23046879 0,0.52734379 0,1.14843754 1.441406,1.14843754 h 0.738281 c 0.292969,0 0.410156,0 0.410156,-0.31640625 z M 15.557586,-1.9911016 c 0,1.34765629 -1.207031,1.60546879 -1.664063,1.60546879 -0.703125,0 -1.300781,-0.46875 -1.300781,-1.13671879 0,-1.3007812 1.558594,-1.7460937 2.964844,-1.8164062 z m 9.005859,-3.328125 c 0,-0.7382812 -0.75,-1.1367187 -1.441406,-1.1367187 -1.125,0 -1.617187,0.9960937 -1.816406,1.59375 h -0.01172 v -1.59375 l -2.355469,0.1171875 v 0.6210937 c 0.890625,0 0.984375,0 0.984375,0.5507813 v 4.54687499 h -0.984375 v 0.62109375 c 0.328125,-0.0234375 1.40625,-0.0234375 1.804688,-0.0234375 0.421875,0 1.582031,0 1.921875,0.0234375 V -0.62000781 H 21.42282 V -3.2215703 c 0,-0.4804688 0.09375,-2.7539063 1.769532,-2.7539063 -0.199219,0.1523438 -0.292969,0.3984375 -0.292969,0.65625 0,0.5859375 0.46875,0.8320313 0.832031,0.8320313 0.351563,0 0.832031,-0.2460938 0.832031,-0.8320313 z m 5.838867,3.5390625 v -0.7617187 h -0.609375 v 0.75 c 0,0.94921874 -0.421875,1.35937499 -0.867187,1.35937499 -0.867188,0 -0.867188,-0.96093749 -0.867188,-1.28906249 v -4.03125 h 2.074219 v -0.609375 h -2.074219 v -2.7421875 h -0.597656 c -0.01172,1.4179687 -0.703125,2.8359375 -2.121094,2.8828125 v 0.46875 h 1.160157 v 3.984375 c 0,1.52343749 1.171875,1.85156249 2.203125,1.85156249 1.066406,0 1.699218,-0.796875 1.699218,-1.86328129 z m 4.910157,1.78125004 V -0.62000781 H 34.433562 V -6.4559453 l -2.4375,0.1171875 v 0.6210937 c 0.84375,0 0.9375,0 0.9375,0.5507813 v 4.54687499 h -0.984375 v 0.62109375 c 0.328125,-0.0234375 1.3125,-0.0234375 1.710938,-0.0234375 0.398437,0 1.3125,0 1.652344,0.0234375 z M 34.597625,-8.7176641 c 0,-0.5859375 -0.480469,-1.03125 -1.03125,-1.03125 -0.585938,0 -1.042969,0.46875 -1.042969,1.03125 0,0.5859375 0.480469,1.03125 1.03125,1.03125 0.585938,0 1.042969,-0.46875 1.042969,-1.03125 z m 6.577148,6.9375 v -0.7617187 h -0.609375 v 0.75 c 0,0.94921874 -0.421875,1.35937499 -0.867187,1.35937499 -0.867188,0 -0.867188,-0.96093749 -0.867188,-1.28906249 v -4.03125 h 2.074219 v -0.609375 h -2.074219 v -2.7421875 h -0.597656 c -0.01172,1.4179687 -0.703125,2.8359375 -2.121094,2.8828125 v 0.46875 h 1.160157 v 3.984375 c 0,1.52343749 1.171875,1.85156249 2.203125,1.85156249 1.066406,0 1.699218,-0.796875 1.699218,-1.86328129 z m 4.913086,1.78125004 V -0.62000781 H 45.208953 V -6.4559453 l -2.4375,0.1171875 v 0.6210937 c 0.84375,0 0.9375,0 0.9375,0.5507813 v 4.54687499 h -0.984375 v 0.62109375 c 0.328125,-0.0234375 1.3125,-0.0234375 1.710938,-0.0234375 0.398437,0 1.3125,0 1.652343,0.0234375 z M 45.373016,-8.7176641 c 0,-0.5859375 -0.480469,-1.03125 -1.03125,-1.03125 -0.585938,0 -1.042969,0.46875 -1.042969,1.03125 0,0.5859375 0.480469,1.03125 1.03125,1.03125 0.585937,0 1.042969,-0.46875 1.042969,-1.03125 z m 8.815429,5.578125 c 0,-1.9335937 -1.324218,-3.3515625 -3.574218,-3.3515625 -2.34375,0 -3.585938,1.4882813 -3.585938,3.3515625 0,1.875 1.324219,3.22265629 3.574219,3.22265629 2.332031,0 3.585937,-1.41796879 3.585937,-3.22265629 z m -1.722656,-0.140625 c 0,1.1835938 0,2.84765629 -1.851562,2.84765629 -1.863282,0 -1.863282,-1.67578129 -1.863282,-2.84765629 0,-0.6796875 0,-1.3945312 0.269532,-1.9101562 0.316406,-0.5742188 0.960937,-0.8320313 1.582031,-0.8320313 0.808594,0 1.335937,0.3867188 1.570312,0.7851563 0.292969,0.515625 0.292969,1.265625 0.292969,1.9570312 z M 63.261687,0.00108594 V -0.62000781 H 62.277312 V -4.3934453 c 0,-1.359375 -0.585937,-2.0625 -2.167968,-2.0625 -1.03125,0 -1.921875,0.5039062 -2.414063,1.5820312 h -0.01172 v -1.5820312 l -2.425781,0.1171875 v 0.6210937 c 0.890625,0 0.996094,0 0.996094,0.5507813 v 4.54687499 H 55.25778 v 0.62109375 c 0.339844,-0.0234375 1.371094,-0.0234375 1.769531,-0.0234375 0.398438,0 1.453125,0 1.78125,0.0234375 V -0.62000781 H 57.812469 V -3.6668828 c 0,-1.5585938 1.148437,-2.3085938 2.074218,-2.3085938 0.527344,0 0.832032,0.3398438 0.832032,1.4296875 v 3.92578129 h -0.996094 v 0.62109375 c 0.328125,-0.0234375 1.359375,-0.0234375 1.769531,-0.0234375 0.398438,0 1.441406,0 1.769531,0.0234375 z m 0,0"
       style="fill:#000000;fill-opacity:1;fill-rule:nonzero;stroke:none"
       aria-label="Partition"
       transform="matrix(1.3333333,0,0,1.3333333,131.55733,17.549333)" />
    <path
       id="path5"
       d="M 10.617562,-6.3157031 10.324594,-9.7141406 H 0.87928125 L 0.5863125,-6.3157031 h 0.609375 c 0.1289062,-1.5585938 0.234375,-2.7773438 2.3085937,-2.7773438 h 1.1601563 v 8.47265627 H 2.4964687 V 7.03125e-4 L 5.6136562,-0.02273438 8.719125,7.03125e-4 V -0.62039063 H 6.5511562 V -9.0930469 h 1.1484375 c 2.0742188,0 2.1796875,1.2070313 2.3085933,2.7773438 z m 6.858399,3.1757812 c 0,-1.9335937 -1.324219,-3.3515625 -3.574219,-3.3515625 -2.34375,0 -3.585937,1.4882813 -3.585937,3.3515625 0,1.875 1.324218,3.22265627 3.574218,3.22265627 2.332032,0 3.585938,-1.41796877 3.585938,-3.22265627 z m -1.722656,-0.140625 c 0,1.1835938 0,2.84765627 -1.851563,2.84765627 -1.863281,0 -1.863281,-1.67578127 -1.863281,-2.84765627 0,-0.6796875 0,-1.3945312 0.269531,-1.9101562 0.316406,-0.5742188 0.960938,-0.8320313 1.582031,-0.8320313 0.808594,0 1.335938,0.3867188 1.570313,0.7851563 0.292969,0.515625 0.292969,1.265625 0.292969,1.9570312 z M 22.049203,7.03125e-4 V -0.62039063 H 21.064828 V -9.9485156 l -2.484375,0.1054687 v 0.6210938 c 0.890625,0 0.984375,0 0.984375,0.5625 v 8.03906247 H 18.580453 V 7.03125e-4 c 0.328125,-0.023437505 1.347656,-0.023437505 1.734375,-0.023437505 0.386719,0 1.40625,0 1.734375,0.023437505 z M 29.341195,-1.6750781 c 0,-0.2226563 -0.222656,-0.2226563 -0.304687,-0.2226563 -0.234375,0 -0.246094,0.046875 -0.328125,0.234375 -0.375,0.93750002 -1.324219,1.23046877 -2.003906,1.23046877 -2.085938,0 -2.097657,-1.93359377 -2.097657,-2.74218747 h 4.3125 c 0.328125,0 0.421875,0 0.421875,-0.3515625 0,-0.4335938 -0.105468,-1.5117188 -0.761718,-2.1796875 -0.609375,-0.609375 -1.40625,-0.7851563 -2.238282,-0.7851563 -2.238281,0 -3.457031,1.453125 -3.457031,3.2695313 0,2.0039062 1.476563,3.30468747 3.644531,3.30468747 2.167969,0 2.8125,-1.51171877 2.8125,-1.75781247 z M 28.016977,-3.5852344 H 24.60682 c 0.02344,-0.5859375 0.03516,-1.1484375 0.339844,-1.6640625 0.269531,-0.4570312 0.773438,-0.7734375 1.394531,-0.7734375 1.535157,0 1.664063,1.7226563 1.675782,2.4375 z m 7.910156,-1.734375 c 0,-0.7382812 -0.75,-1.1367187 -1.441406,-1.1367187 -1.125,0 -1.617188,0.9960937 -1.816407,1.59375 H 32.6576 v -1.59375 l -2.355469,0.1171875 v 0.6210937 c 0.890625,0 0.984375,0 0.984375,0.5507813 v 4.54687497 H 30.302133 V 7.03125e-4 c 0.328125,-0.023437505 1.40625,-0.023437505 1.804687,-0.023437505 0.421875,0 1.582032,0 1.921875,0.023437505 V -0.62039063 H 32.786508 V -3.2219531 c 0,-0.4804688 0.09375,-2.7539063 1.769531,-2.7539063 -0.199219,0.1523438 -0.292969,0.3984375 -0.292969,0.65625 0,0.5859375 0.46875,0.8320313 0.832032,0.8320313 0.351562,0 0.832031,-0.2460938 0.832031,-0.8320313 z m 8.226562,5.00390627 c 0,-0.3046875 -0.128906,-0.3046875 -0.328125,-0.3046875 -0.902343,-0.0117188 -0.902343,-0.234375 -0.902343,-0.57421877 v -3.09375 c 0,-1.3242187 -1.042969,-2.203125 -3.070313,-2.203125 -0.808594,0 -2.496094,0.070312 -2.496094,1.265625 0,0.609375 0.457032,0.8671875 0.84375,0.8671875 0.433594,0 0.84375,-0.3046875 0.84375,-0.84375 0,-0.28125 -0.09375,-0.5390625 -0.339843,-0.6914062 0.46875,-0.1289063 0.820312,-0.1289063 1.089843,-0.1289063 0.972657,0 1.570313,0.5390625 1.570313,1.7226563 v 0.5742187 c -2.273438,0 -4.558594,0.6328125 -4.558594,2.2148438 0,1.31249997 1.664063,1.59374997 2.660156,1.59374997 1.101563,0 1.804688,-0.59765625 2.097657,-1.23046877 0,0.52734377 0,1.148437525 1.441406,1.148437525 h 0.738281 c 0.292969,0 0.410156,0 0.410156,-0.316406255 z M 41.364633,-1.9914844 c 0,1.34765627 -1.207031,1.60546877 -1.664063,1.60546877 -0.703125,0 -1.300781,-0.46875 -1.300781,-1.13671877 0,-1.3007812 1.558594,-1.7460937 2.964844,-1.8164062 z M 52.846078,7.03125e-4 V -0.62039063 H 51.861703 V -4.3938281 c 0,-1.359375 -0.585937,-2.0625 -2.167969,-2.0625 -1.03125,0 -1.921875,0.5039062 -2.414062,1.5820312 h -0.01172 v -1.5820312 l -2.425781,0.1171875 v 0.6210937 c 0.890625,0 0.996094,0 0.996094,0.5507813 v 4.54687497 H 44.842172 V 7.03125e-4 c 0.339844,-0.023437505 1.371094,-0.023437505 1.769531,-0.023437505 0.398438,0 1.453125,0 1.78125,0.023437505 V -0.62039063 H 47.396859 V -3.6672656 c 0,-1.5585938 1.148438,-2.3085938 2.074219,-2.3085938 0.527344,0 0.832031,0.3398438 0.832031,1.4296875 v 3.92578127 H 49.307016 V 7.03125e-4 c 0.328125,-0.023437505 1.359375,-0.023437505 1.769531,-0.023437505 0.398437,0 1.441406,0 1.769531,0.023437505 z M 59.924203,-1.6750781 c 0,-0.1757813 -0.164062,-0.1757813 -0.304687,-0.1757813 -0.222657,0 -0.246094,0.011719 -0.316407,0.1875 -0.09375,0.2695313 -0.480468,1.23046877 -1.804687,1.23046877 -2.027344,0 -2.027344,-2.17968747 -2.027344,-2.82421877 0,-0.84375 0.02344,-2.71875 1.898438,-2.71875 0.105468,0 0.949218,0.023437 0.949218,0.09375 0,0 -0.01172,0.035156 -0.04687,0.046875 -0.04687,0.046875 -0.234375,0.2578125 -0.234375,0.609375 0,0.609375 0.492188,0.8554688 0.855469,0.8554688 0.292969,0 0.84375,-0.1875 0.84375,-0.8671875 0,-1.171875 -1.652344,-1.2539063 -2.425781,-1.2539063 -2.554688,0 -3.550781,1.6640625 -3.550781,3.3046875 0,1.9570313 1.359375,3.26953127 3.46875,3.26953127 2.25,0 2.695312,-1.66406247 2.695312,-1.75781247 z m 7.362305,0 c 0,-0.2226563 -0.222656,-0.2226563 -0.304688,-0.2226563 -0.234375,0 -0.246093,0.046875 -0.328125,0.234375 -0.375,0.93750002 -1.324218,1.23046877 -2.003906,1.23046877 -2.085937,0 -2.097656,-1.93359377 -2.097656,-2.74218747 h 4.3125 c 0.328125,0 0.421875,0 0.421875,-0.3515625 0,-0.4335938 -0.105469,-1.5117188 -0.761719,-2.1796875 -0.609375,-0.609375 -1.40625,-0.7851563 -2.238281,-0.7851563 -2.238281,0 -3.457031,1.453125 -3.457031,3.2695313 0,2.0039062 1.476562,3.30468747 3.644531,3.30468747 2.167969,0 2.8125,-1.51171877 2.8125,-1.75781247 z m -1.324219,-1.9101563 h -3.410156 c 0.02344,-0.5859375 0.03516,-1.1484375 0.339844,-1.6640625 0.269531,-0.4570312 0.773437,-0.7734375 1.394531,-0.7734375 1.535156,0 1.664062,1.7226563 1.675781,2.4375 z m 0,0"
       style="fill:#000000;fill-opacity:1;fill-rule:nonzero;stroke:none"
       aria-label="Tolerance"
       transform="matrix(1.3333333,0,0,1.3333333,128.812,41.46)" />
    <path
       id="path6"
       d="M 74.57951,-5.52435 H 95.50132 V 5.52435 H 74.57951 Z"
       style="fill:#ffffff;fill-opacity:1;fill-rule:nonzero;stroke:none"
       transform="matrix(1.3333333,0,0,-1.3333333,60.588,250.36133)" />
    <path
       id="path7"
       d="m 7.6296016,-2.2613828 c 0,-0.1992188 -0.070312,-0.2109375 -0.234375,-0.2109375 -0.1289063,0 -0.2226563,0 -0.234375,0.1757812 -0.070312,1.33593754 -1.2773438,1.93359379 -2.2734375,1.93359379 -0.7851563,0 -1.6171875,-0.234375 -2.1328125,-0.84374999 -0.46875,-0.5625 -0.5976563,-1.3125 -0.5976563,-2.2148438 0,-0.5507812 0.035156,-1.6289062 0.6679688,-2.2851562 0.6445312,-0.65625 1.5117187,-0.7734375 2.0273437,-0.7734375 1.078125,0 2.0273438,0.7617187 2.2382813,2.0273437 0.035156,0.1875 0.046875,0.2109375 0.2695312,0.2109375 0.2578125,0 0.2695313,-0.023437 0.2695313,-0.28125 v -2.1445312 c 0,-0.1875 0,-0.2695313 -0.1757813,-0.2695313 -0.09375,0 -0.1171875,0.011719 -0.1875,0.082031 l -0.65625,0.5859375 c -0.6210937,-0.4921875 -1.2890625,-0.6679688 -1.96875,-0.6679688 -2.484375,0 -4.00781249,1.4765625 -4.00781249,3.515625 0,2.0507813 1.52343749,3.52734379 4.00781249,3.52734379 1.8632813,0 2.9882813,-1.21874999 2.9882813,-2.36718719 z M 16.518273,3.359375e-4 V -0.46841406 H 15.557336 L 13.002648,-6.6910703 c -0.105468,-0.2578125 -0.234375,-0.2578125 -0.398437,-0.2578125 -0.28125,0 -0.316406,0.070312 -0.386719,0.2578125 l -2.4726561,5.98828124 c -0.058594,0.15234375 -0.09375,0.234375 -0.84375,0.234375 H 8.6901484 V 3.359375e-4 L 9.8503047,-0.03482031 c 0.3867183,0 0.9492183,0 1.3242183,0.0351562475 V -0.46841406 c 0,0 -0.890625,0 -0.890625,-0.12890625 l 0.03516,-0.1171875 0.503906,-1.20703129 h 2.671875 l 0.597656,1.45312504 H 13.143273 V 3.359375e-4 c 0.375,-0.0351562475 1.324219,-0.0351562475 1.746094,-0.0351562475 0.398438,0 1.277344,0 1.628906,0.0351562475 z M 13.295617,-2.3902891 H 11.02218 l 1.136718,-2.765625 z m 0,0"
       style="fill:#000000;fill-opacity:1;fill-rule:nonzero;stroke:none"
       aria-label="CA"
       transform="matrix(1.3333333,0,0,1.3333333,162.68267,254.92533)" />
    <path
       id="path8"
       d="M 42.76399,85.16292 32.71655,67.7602 42.2764,62.24083 52.32384,79.64355 Z"
       style="fill:#ffffff;fill-opacity:1;fill-rule:nonzero;stroke:none"
       transform="matrix(1.3333333,0,0,-1.3333333,60.588,250.36133)" />
    <path
       id="path9"
       d="m 7.6241693,-2.2654188 c 0.00345,-0.2049645 -0.070732,-0.2162627 -0.2436809,-0.2111324 -0.120635,0.00199 -0.2151133,0.00241 -0.225991,0.17107 -0.066724,1.33755434 -1.2748411,1.94033614 -2.2777967,1.93753199 -0.7819829,0.004934 -1.6101114,-0.23412212 -2.1244709,-0.84377359 -0.4749141,-0.5647673 -0.6032023,-1.3025951 -0.5999776,-2.2110723 -0.00681,-0.5508616 0.033447,-1.629568 0.6656948,-2.2922892 0.6439665,-0.6424238 1.5082886,-0.7625536 2.0329934,-0.7677958 1.0712771,0.00395 2.0194235,0.7555752 2.2372834,2.0235466 0.043006,0.191676 0.044576,0.2178327 0.275697,0.2197112 0.2572781,3.086e-4 0.2658569,-0.031708 0.2661654,-0.2889856 l -0.0081,-2.1468435 c -8.409e-4,-0.1889565 0.0046,-0.2732861 -0.1683505,-0.2681558 -0.094478,4.205e-4 -0.1249244,0.017999 -0.1943954,0.08517 l -0.657256,0.5959701 C 5.9834183,-6.7713605 5.3169401,-6.9413658 4.6395842,-6.9427119 2.151133,-6.9403585 0.63291953,-5.4684329 0.63474049,-3.4262164 0.63227207,-1.3679918 2.1592306,0.10491698 4.6476817,0.10256364 6.5110904,0.09572428 7.6249255,-1.1156715 7.6241693,-2.2654188 Z M 15.45616,-4.8893935 c -0.0035,-1.1075825 -0.988348,-1.946253 -2.636643,-1.9418245 l -4.1586139,-0.00766 0.0021,0.4723914 1.0712771,0.00395 0.00148,5.88537952 -1.071277,-0.003954 0.0021,0.47239136 c 0.3603351,-0.03212799 1.3472818,-0.03361321 1.7673598,-0.03257564 0.436086,0.0053269 1.407026,-4.4766e-4 1.792368,0.03417594 l -0.0021,-0.47239136 -1.065418,0.006195 -0.0055,-2.54076462 1.758781,-5.595e-4 c 1.380869,0.00112 2.55069,-0.7148653 2.544074,-1.8747613 z m -1.52766,0.00244 c 2.24e-4,0.7035127 0.0036,1.4593388 -1.497916,1.460207 l -1.328555,-0.00426 -0.0029,-2.9346858 1.328555,0.00426 c 1.501504,-8.681e-4 1.499008,0.7448094 1.500802,1.4744788 z m 0,0"
       style="fill:#000000;fill-opacity:1;fill-rule:nonzero;stroke:none"
       aria-label="CP"
       transform="matrix(0.66666667,-1.1547067,1.1547067,0.66666667,115.85733,163.67333)" />
    <path
       id="path10"
       d="m 137.41579,67.57132 -10.23674,17.73061 -9.47356,-5.46955 10.23674,-17.7306 z"
       style="fill:#ffffff;fill-opacity:1;fill-rule:nonzero;stroke:none"
       transform="matrix(1.3333333,0,0,-1.3333333,60.588,250.36133)" />
    <path
       id="path11"
       d="m 8.2363883,0.00545636 0.0021,-0.47239135 -0.9607908,8.472e-5 L 4.7209512,-6.6790332 C 4.621875,-6.9527398 4.4953807,-6.9445815 4.3325809,-6.9438525 c -0.2834349,-0.00126 -0.3244502,0.06978 -0.3936126,0.2598856 l -2.480205,5.98336377 c -0.045725,0.14951119 -0.0926,0.23070086 -0.83827719,0.23319646 l -0.21511329,-0.002411 -0.002102,0.47239136 1.17318458,-0.03983863 c 0.3880618,0.0075412 0.9447827,0.0042047 1.3152665,0.04219197 l 0.0021,-0.47239136 c 0,0 -0.8924692,-0.001065 -0.8904788,-0.12169977 l 0.044155,-0.12335445 0.4922955,-1.20424785 2.667259,-0.00267 0.6113062,1.44899346 -0.9607908,8.473e-5 -0.0021,0.47239136 c 0.3853423,-0.03461847 1.3359843,-0.04056253 1.7560622,-0.0416001 0.4040698,0.0032518 1.280531,0.0086059 1.6248581,0.04502331 z M 5.0202006,-2.3926636 2.7468627,-2.3926061 3.8783574,-5.1492977 Z M 15.844136,-4.8747437 c 0.0035,-1.1075826 -0.985547,-1.9492235 -2.633843,-1.953652 l -4.1586135,0.00766 -0.0021,0.4723913 1.0712765,-0.00395 -0.0015,5.88537951 -1.0712765,0.003954 -0.0021,0.47239136 c 0.3751937,-0.04048292 1.3621415,-0.0389977 1.7822195,-0.04003527 0.436086,-0.0053269 1.407025,4.4765e-4 1.777509,0.03843497 l 0.0021,-0.47239136 -1.065417,-0.006195 0.0055,-2.54076461 1.758781,5.595e-4 c 1.380869,-0.00112 2.53084,-0.7038787 2.537456,-1.8637747 z m -1.527661,-0.00244 c -2.23e-4,0.7035127 -0.0036,1.4593388 -1.505091,1.4584707 l -1.328555,0.00426 0.0029,-2.9346857 1.328555,-0.00426 c 1.501504,8.681e-4 1.503999,0.7465456 1.502205,1.476215 z m 0,0"
       style="fill:#000000;fill-opacity:1;fill-rule:nonzero;stroke:none"
       aria-label="AP"
       transform="matrix(0.66666667,1.1547067,-1.1547067,0.66666667,221.156,144.892)" />
    <path
       id="path12"
       d="M 3.0690859,-1.1127422 V -1.6166484 H 2.8112734 v 0.4804687 c 0,0.65625001 -0.28125,0.98437501 -0.5976562,0.98437501 -0.5976563,0 -0.5976563,-0.78515625 -0.5976563,-0.94921871 v -2.484375 h 1.3007813 v -0.28125 H 1.6159609 v -1.640625 H 1.3581484 c 0,0.75 -0.3164062,1.6757812 -1.18359371,1.6992187 v 0.2226563 h 0.7734375 v 2.4726562 c 0,1.00781251 0.72656251,1.20703126 1.20703121,1.20703126 0.5976563,0 0.9140625,-0.57421875 0.9140625,-1.20703126 z m 3.8583985,-2.296875 c 0,-0.28125 -0.2695313,-0.5507812 -0.6679688,-0.5507812 -0.5390625,0 -0.9140625,0.375 -1.125,0.9257812 v -0.9257812 l -1.2773437,0.09375 v 0.28125 c 0.609375,0 0.6914062,0.058594 0.6914062,0.5039062 v 2.39062501 c 0,0.41015625 -0.1054687,0.41015625 -0.6914062,0.41015625 V 5.390625e-4 C 4.3259219,-0.02289844 4.4431094,-0.02289844 4.9001406,-0.02289844 L 6.0485781,5.390625e-4 V -0.28071094 h -0.1875 c -0.65625,0 -0.6796875,-0.09375 -0.6796875,-0.421875 V -2.0502422 c 0,-0.375 0.1054688,-1.6875 1.125,-1.6875 v 0.011719 c -0.023437,0.011719 -0.1640625,0.1171875 -0.1640625,0.328125 0,0.2460937 0.1875,0.3984375 0.3984375,0.3984375 0.1875,0 0.3867188,-0.140625 0.3867188,-0.4101565 z m 4.7167966,2.61328126 V -1.3002422 h -0.246093 v 0.49218751 c 0,0.10546875 0,0.55078125 -0.328125,0.55078125 -0.316407,0 -0.316407,-0.43359375 -0.316407,-0.57421875 V -2.4018047 c 0,-0.515625 0,-0.8203125 -0.410156,-1.1835937 -0.328125,-0.2929688 -0.7617187,-0.4335938 -1.2070312,-0.4335938 -0.75,0 -1.3828125,0.375 -1.3828125,0.9492188 0,0.28125 0.1875,0.4335937 0.421875,0.4335937 0.2460937,0 0.4101562,-0.1757812 0.4101562,-0.4101562 0,-0.3867188 -0.3984375,-0.4335938 -0.3984375,-0.4335938 0.2460938,-0.234375 0.6679688,-0.3164062 0.9257813,-0.3164062 0.4570312,0 0.9726567,0.3398437 0.9726567,1.1367187 v 0.2929688 c -0.4804692,0.023437 -1.1601567,0.058594 -1.757813,0.3515625 -0.6445312,0.3164062 -0.84375,0.7734375 -0.84375,1.13671871 0,0.73828125 0.8671875,0.97265625 1.4765625,0.97265625 0.7382813,0 1.0781255,-0.4921875 1.2070315,-0.73828125 0.04687,0.375 0.304687,0.703125 0.691406,0.703125 0.222656,0 0.785156,-0.140625 0.785156,-0.85546875 z M 10.085688,-1.2650859 c 0,0.86718746 -0.6679692,1.13671871 -1.0664067,1.13671871 -0.421875,0 -0.8203125,-0.3046875 -0.8203125,-0.75 0,-0.58593751 0.515625,-1.21875001 1.8867192,-1.27734371 z m 6.55371,1.2656249625 V -0.28071094 c -0.609375,0 -0.691406,-0.0585938 -0.691406,-0.50390625 V -6.2221172 l -1.324219,0.1054688 v 0.2695312 c 0.609375,0 0.691407,0.070312 0.691407,0.5039063 v 1.9101562 c -0.04687,-0.058594 -0.445313,-0.5273437 -1.148438,-0.5273437 -1.101562,0 -2.0625,0.8789062 -2.0625,2.0390625 0,1.11328121 0.902344,2.01562496 1.96875,2.01562496 0.644531,0 1.054688,-0.375 1.21875,-0.57421875 V 0.09428906 Z M 15.291742,-1.0775859 c 0,0.16406246 0,0.18749996 -0.140625,0.37499996 -0.28125,0.41015625 -0.691406,0.57421875 -1.042969,0.57421875 -0.386718,0 -0.75,-0.2109375 -0.984375,-0.5859375 C 12.889398,-1.1010234 12.87768,-1.6283672 12.87768,-1.9213359 c 0,-0.421875 0.04687,-0.890625 0.28125,-1.2539063 0.199218,-0.28125 0.5625,-0.5625 1.042968,-0.5625 0.375,0 0.738282,0.1875 0.972657,0.5273438 0.117187,0.140625 0.117187,0.1523437 0.117187,0.328125 z M 19.194086,5.390625e-4 V -0.28071094 c -0.585938,0 -0.621094,-0.046875 -0.621094,-0.38671875 V -3.9603984 l -1.289062,0.09375 v 0.28125 c 0.574218,0 0.644531,0.058594 0.644531,0.4921875 v 2.40234371 c 0,0.41015625 -0.09375,0.41015625 -0.679688,0.41015625 V 5.390625e-4 C 17.647211,-0.02289844 17.834711,-0.02289844 18.233148,-0.02289844 c 0.140625,0 0.515625,0 0.960938,0.0234375025 z M 18.69018,-5.4018047 c 0,-0.2695312 -0.222657,-0.4921875 -0.492188,-0.4921875 -0.269531,0 -0.480469,0.2226563 -0.480469,0.4921875 0,0.2695313 0.210938,0.4804688 0.480469,0.4804688 0.269531,0 0.492188,-0.2109375 0.492188,-0.4804688 z m 3.864258,4.2890625 v -0.5039062 h -0.257813 v 0.4804687 c 0,0.65625001 -0.28125,0.98437501 -0.597656,0.98437501 -0.597656,0 -0.597656,-0.78515625 -0.597656,-0.94921871 v -2.484375 h 1.300781 v -0.28125 h -1.300781 v -1.640625 H 20.8435 c 0,0.75 -0.316406,1.6757812 -1.183594,1.6992187 v 0.2226563 h 0.773438 v 2.4726562 c 0,1.00781251 0.726562,1.20703126 1.207031,1.20703126 0.597656,0 0.914063,-0.57421875 0.914063,-1.20703126 z M 25.3435,5.390625e-4 V -0.28071094 c -0.585937,0 -0.621094,-0.046875 -0.621094,-0.38671875 V -3.9603984 l -1.289062,0.09375 v 0.28125 c 0.574219,0 0.644531,0.058594 0.644531,0.4921875 v 2.40234371 c 0,0.41015625 -0.09375,0.41015625 -0.679687,0.41015625 V 5.390625e-4 C 23.796625,-0.02289844 23.984125,-0.02289844 24.382563,-0.02289844 c 0.140625,0 0.515625,0 0.960937,0.0234375025 z M 24.839594,-5.4018047 c 0,-0.2695312 -0.222656,-0.4921875 -0.492188,-0.4921875 -0.269531,0 -0.480468,0.2226563 -0.480468,0.4921875 0,0.2695313 0.210937,0.4804688 0.480468,0.4804688 0.269532,0 0.492188,-0.2109375 0.492188,-0.4804688 z m 5.129883,3.4921875 c 0,-1.171875 -0.925782,-2.109375 -2.027344,-2.109375 -1.148438,0 -2.050781,0.9609375 -2.050781,2.109375 0,1.12500001 0.9375,2.00390626 2.039062,2.00390626 1.136719,0 2.039063,-0.90234375 2.039063,-2.00390626 z m -0.773438,-0.082031 c 0,0.328125 0,0.8554687 -0.222656,1.25390621 -0.246094,0.41015625 -0.65625,0.5859375 -1.03125,0.5859375 -0.457031,0 -0.832031,-0.22265625 -1.03125,-0.57421875 -0.234375,-0.37499996 -0.246094,-0.85546876 -0.246094,-1.26562496 0,-0.328125 0,-0.84375 0.222656,-1.2070313 0.269532,-0.4570312 0.714844,-0.5976562 1.042969,-0.5976562 0.503906,0 0.878906,0.2929687 1.054688,0.5976562 0.210937,0.375 0.210937,0.8320313 0.210937,1.2070313 z M 35.143305,5.390625e-4 V -0.28071094 c -0.457032,0 -0.679688,0 -0.679688,-0.26953125 V -2.2728984 c 0,-0.75 0,-1.0078125 -0.257812,-1.3242188 -0.199219,-0.2460937 -0.550782,-0.3632812 -0.996094,-0.3632812 -0.832031,0 -1.21875,0.6210937 -1.347656,0.8671875 v -0.8671875 l -1.300782,0.09375 v 0.28125 c 0.609375,0 0.691407,0.058594 0.691407,0.5039062 v 2.39062501 c 0,0.41015625 -0.105469,0.41015625 -0.691407,0.41015625 V 5.390625e-4 C 30.983148,-0.02289844 31.147211,-0.02289844 31.580805,-0.02289844 c 0.433593,0 0.550781,0 1.019531,0.0234375025 V -0.28071094 c -0.585938,0 -0.691406,0 -0.691406,-0.41015625 V -2.3197734 c 0,-0.9492188 0.679687,-1.4179688 1.242187,-1.4179688 0.527344,0 0.644531,0.4335938 0.644531,0.9726563 v 2.07421871 c 0,0.41015625 -0.09375,0.41015625 -0.691406,0.41015625 V 5.390625e-4 C 33.526117,-0.02289844 33.701898,-0.02289844 34.123773,-0.02289844 c 0.433594,0 0.550782,0 1.019532,0.0234375025 z M 39.816156,-0.79633594 V -1.3002422 h -0.246093 v 0.49218751 c 0,0.10546875 0,0.55078125 -0.328125,0.55078125 -0.316407,0 -0.316407,-0.43359375 -0.316407,-0.57421875 V -2.4018047 c 0,-0.515625 0,-0.8203125 -0.410156,-1.1835937 -0.328125,-0.2929688 -0.761719,-0.4335938 -1.207031,-0.4335938 -0.75,0 -1.382813,0.375 -1.382813,0.9492188 0,0.28125 0.1875,0.4335937 0.421875,0.4335937 0.246094,0 0.410157,-0.1757812 0.410157,-0.4101562 0,-0.3867188 -0.398438,-0.4335938 -0.398438,-0.4335938 0.246094,-0.234375 0.667969,-0.3164062 0.925781,-0.3164062 0.457032,0 0.972657,0.3398437 0.972657,1.1367187 v 0.2929688 c -0.480469,0.023437 -1.160157,0.058594 -1.757813,0.3515625 -0.644531,0.3164062 -0.84375,0.7734375 -0.84375,1.13671871 0,0.73828125 0.867188,0.97265625 1.476563,0.97265625 0.738281,0 1.078125,-0.4921875 1.207031,-0.73828125 0.04687,0.375 0.304687,0.703125 0.691406,0.703125 0.222656,0 0.785156,-0.140625 0.785156,-0.85546875 z M 38.257563,-1.2650859 c 0,0.86718746 -0.667969,1.13671871 -1.066407,1.13671871 -0.421875,0 -0.820312,-0.3046875 -0.820312,-0.75 0,-0.58593751 0.515625,-1.21875001 1.886719,-1.27734371 z M 42.31518,5.390625e-4 V -0.28071094 c -0.597657,0 -0.691407,0 -0.691407,-0.41015625 V -6.2221172 l -1.324218,0.1054688 v 0.2695312 c 0.609375,0 0.679687,0.070312 0.679687,0.5039063 v 4.65234371 c 0,0.41015625 -0.09375,0.41015625 -0.679687,0.41015625 V 5.390625e-4 C 40.709711,-0.02289844 40.885492,-0.02289844 41.295648,-0.02289844 c 0.421875,0 0.574219,0 1.019532,0.0234375025 z M 52.349359,-0.79633594 c 0,-0.0585938 0,-0.1640625 -0.117187,-0.1640625 -0.117188,0 -0.117188,0.0820313 -0.128906,0.15234375 -0.04687,0.5625 -0.328125,0.78515625 -0.597657,0.78515625 -0.292968,0 -0.386718,-0.1875 -0.457031,-0.33984375 -0.08203,-0.1875 -0.164062,-0.79687501 -0.222656,-1.20703121 -0.07031,-0.5507813 -0.152344,-1.1601563 -1.148438,-1.4648438 0.855469,-0.2460937 1.558594,-0.7734375 1.558594,-1.4765625 0,-0.890625 -1.089844,-1.6054687 -2.402344,-1.6054687 h -2.859375 v 0.2695312 h 0.199219 c 0.691406,0 0.714844,0.1054688 0.714844,0.4335938 v 4.71093746 c 0,0.328125 -0.02344,0.421875 -0.714844,0.421875 H 45.974359 V 5.390625e-4 C 46.396234,-0.02289844 46.841547,-0.02289844 47.275141,-0.02289844 c 0.421875,0 0.867187,0 1.300781,0.0234375025 V -0.28071094 h -0.199219 c -0.691406,0 -0.714844,-0.09375 -0.714844,-0.421875 V -2.9525859 h 1.078125 c 0.644532,0 0.9375,0.3398437 0.972657,0.375 0.269531,0.3398437 0.269531,0.46875 0.269531,1.1132812 0,0.59765626 0,0.98437501 0.421875,1.33593751 0.421875,0.328125 0.960937,0.328125 1.066406,0.328125 0.75,0 0.878906,-0.78515625 0.878906,-0.99609375 z M 50.322016,-4.5111797 c 0,0.7734375 -0.398438,1.3359375 -1.617188,1.3359375 h -1.042969 v -2.296875 c 0,-0.234375 0.02344,-0.3164062 0.1875,-0.3515625 0.08203,-0.023437 0.375,-0.023437 0.5625,-0.023437 0.761719,0 1.910157,0 1.910157,1.335937 z m 8.583984,1.5 c 0,-1.6992187 -1.242187,-3.1054687 -2.824219,-3.1054687 h -3.328125 v 0.2695312 h 0.199219 c 0.691406,0 0.714844,0.1054688 0.714844,0.4335938 v 4.71093746 c 0,0.328125 -0.02344,0.421875 -0.714844,0.421875 H 52.753656 V 5.390625e-4 h 3.328125 c 1.558594,0 2.824219,-1.3242187625 2.824219,-3.0117187625 z m -0.890625,0 c 0,0.3632813 0,1.3125 -0.492187,1.9335938 -0.457032,0.60937496 -1.113282,0.79687496 -1.675782,0.79687496 h -0.960937 c -0.421875,0 -0.445313,-0.0585938 -0.445313,-0.36328125 V -5.4721172 c 0,-0.3046875 0.02344,-0.375 0.445313,-0.375 h 0.960937 c 0.867188,0 1.40625,0.4570313 1.640625,0.7851563 0.398438,0.515625 0.527344,1.1601562 0.527344,2.0507812 z m 7.426758,1.3828125 c 0,-0.8085937 -0.785156,-1.4648437 -1.78125,-1.5703125 0.890625,-0.1757812 1.511719,-0.75 1.511719,-1.40625 0,-0.796875 -0.855469,-1.5117187 -2.039063,-1.5117187 h -3.339844 v 0.2695312 h 0.210938 c 0.691406,0 0.703125,0.1054688 0.703125,0.4335938 v 4.71093746 c 0,0.328125 -0.01172,0.421875 -0.703125,0.421875 H 59.793695 V 5.390625e-4 h 3.585938 c 1.21875,0 2.0625,-0.7968750025 2.0625,-1.6289062625 z m -1.125,-2.9765625 c 0,0.6914063 -0.597656,1.3007813 -1.441406,1.3007813 h -1.40625 v -2.1679688 c 0,-0.3046875 0.01172,-0.375 0.433593,-0.375 h 1.171875 c 0.878907,0 1.242188,0.703125 1.242188,1.2421875 z m 0.234375,2.953125 c 0,0.69140626 -0.539063,1.37109376 -1.464844,1.37109376 H 61.90307 c -0.421875,0 -0.433593,-0.0585938 -0.433593,-0.36328125 V -3.0697734 h 1.6875 c 1.042968,0 1.394531,0.8789062 1.394531,1.4179687 z M 74.008539,5.390625e-4 V -0.28071094 h -0.210937 c -0.691407,0 -0.703125,-0.09375 -0.703125,-0.421875 V -5.4135234 c 0,-0.328125 0.01172,-0.4335938 0.703125,-0.4335938 h 0.210937 V -6.1166484 H 72.49682 c -0.1875,0 -0.246093,0 -0.304687,0.1523437 l -2.015625,5.08593751 -2.003906,-5.05078121 c -0.07031,-0.1757813 -0.08203,-0.1875 -0.328125,-0.1875 h -1.5 v 0.2695312 h 0.199218 c 0.691407,0 0.714844,0.1054688 0.714844,0.4335938 v 4.46484371 c 0,0.24609375 0,0.66796875 -0.914062,0.66796875 V 5.390625e-4 C 66.836664,-0.02289844 66.96557,-0.02289844 67.399164,-0.02289844 c 0.433594,0 0.5625,0 1.054688,0.0234375025 V -0.28071094 c -0.914063,0 -0.914063,-0.421875 -0.914063,-0.66796875 V -5.7533672 l 2.214844,5.55468751 c 0.03516,0.1171875 0.07031,0.1992187525 0.1875,0.1992187525 0.09375,0 0.140625,-0.0820312525 0.175781,-0.1640625025 l 2.238281,-5.66015626 0.01172,0.011719 v 5.10937496 c 0,0.328125 -0.02344,0.421875 -0.703125,0.421875 H 71.453852 V 5.390625e-4 C 71.992914,-0.02289844 72.59057,-0.02289844 72.731195,-0.02289844 c 0.04687,0 0.714844,0 1.277344,0.0234375025 z M 78.997797,-1.6635234 c 0,-0.5039063 -0.1875,-0.9023438 -0.398438,-1.171875 -0.386718,-0.4921875 -0.785156,-0.5859375 -1.371093,-0.7265625 l -0.785157,-0.1875 c -0.726562,-0.1757813 -0.949218,-0.75 -0.949218,-1.1484375 0,-0.5976563 0.480468,-1.171875 1.230468,-1.171875 1.160157,0 1.628907,0.8671875 1.746094,1.7695312 0.03516,0.1640625 0.03516,0.2109375 0.152344,0.2109375 0.117187,0 0.117187,-0.058594 0.117187,-0.2460937 v -1.734375 c 0,-0.1757813 0,-0.2460938 -0.105468,-0.2460938 -0.05859,0 -0.07031,0 -0.128907,0.1171875 -0.117187,0.1523438 -0.03516,0.035156 -0.328125,0.5039063 -0.152343,-0.1757813 -0.621093,-0.6210938 -1.464843,-0.6210938 -1.042969,0 -1.792969,0.8085938 -1.792969,1.7226563 0,0.703125 0.421875,1.1367187 0.457031,1.1835937 0.410156,0.3867188 0.574219,0.4335938 1.640625,0.6796875 0.726563,0.1757813 0.796875,0.1992188 1.101563,0.5039063 0,0 0.304687,0.3398437 0.304687,0.8671875 0,0.60937496 -0.433594,1.27734371 -1.253906,1.27734371 -0.691406,0 -1.933594,-0.28125 -2.003906,-1.76953121 -0.01172,-0.1289063 -0.01172,-0.1875 -0.128907,-0.1875 -0.117187,0 -0.117187,0.070312 -0.117187,0.2578125 v 1.72265621 c 0,0.1875 0,0.2578125 0.105469,0.2578125 0.05859,0 0.07031,-0.0117188 0.128906,-0.1171875 0.117187,-0.1640625 0.03516,-0.046875 0.328125,-0.515625 0.550781,0.5390625 1.265625,0.6328125 1.699219,0.6328125 1.089843,0 1.816406,-0.90234375 1.816406,-1.86328121 z m 0,0"
       style="fill:#000000;fill-opacity:1;fill-rule:nonzero;stroke:none"
       aria-label="traditionalRDBMS"
       transform="matrix(1.3333333,0,0,1.3333333,120.95867,291.136)" />
    <path
       id="path13"
       d="m 3.0595313,2.1313828 c 0,-0.046875 -0.023437,-0.070312 -0.082031,-0.1289062 -1.1601562,-1.06640629 -1.5117187,-2.67187504 -1.5117187,-4.2421875 0,-1.3945313 0.2695312,-3.0820313 1.5351562,-4.2773438 0.035156,-0.035156 0.058594,-0.070312 0.058594,-0.1054687 0,-0.070312 -0.046875,-0.1054688 -0.1054688,-0.1054688 -0.1054687,0 -0.9140625,0.6445313 -1.40625,1.6289063 -0.421875,0.8554687 -0.64453125,1.78125 -0.64453125,2.8476562 0,0.6445313 0.0820313,1.66406251 0.57421875,2.73046876 0.5273438,1.10156254 1.3710938,1.74609374 1.4765625,1.74609374 0.058594,0 0.1054688,-0.035156 0.1054683,-0.09375 z m 3.84375,-3.28125 c 0,-0.3984375 -0.1757813,-0.6445312 -0.375,-0.8554687 -0.3046875,-0.2929688 -0.6328125,-0.3515625 -1.2890625,-0.4804688 -0.234375,-0.046875 -0.890625,-0.1640625 -0.890625,-0.6679687 0,-0.2929688 0.2109375,-0.6679688 1.0195312,-0.6679688 0.9726563,0 1.03125,0.75 1.0546875,0.9726563 0.011719,0.1054687 0.011719,0.1640625 0.1171875,0.1640625 0.1289063,0 0.1289063,-0.070312 0.1289063,-0.234375 v -0.8671875 c 0,-0.1523438 0,-0.234375 -0.1054688,-0.234375 -0.046875,0 -0.058594,0 -0.1757812,0.1054687 -0.023437,0.023437 -0.1054688,0.1054688 -0.1523438,0.1523438 -0.28125,-0.1992188 -0.5625,-0.2578125 -0.8671875,-0.2578125 -1.1835937,0 -1.4765625,0.65625 -1.4765625,1.1132812 0,0.2929688 0.1289063,0.5273438 0.328125,0.7148438 0.3046875,0.28125 0.6445313,0.3398437 1.1015625,0.421875 0.4570313,0.09375 0.609375,0.1171875 0.8085938,0.2695312 0.09375,0.070312 0.3164062,0.2460938 0.3164062,0.58593751 0,0.78515625 -0.9023437,0.78515625 -1.03125,0.78515625 -0.9140625,0 -1.1484375,-0.76171875 -1.2539062,-1.24218746 -0.023437,-0.09375 -0.035156,-0.140625 -0.140625,-0.140625 -0.1289063,0 -0.1289063,0.070312 -0.1289063,0.234375 v 1.14843746 c 0,0.15234375 0,0.22265625 0.1054688,0.22265625 0.058594,0 0.070312,0 0.2226562,-0.17578125 0.035156,-0.046875 0.140625,-0.1640625 0.1875,-0.2109375 0.375,0.36328125 0.7851563,0.38671875 1.0078125,0.38671875 1.1015625,0 1.4882813,-0.64453125 1.4882813,-1.24218751 z m 2.586914,1.14843751 v -0.28125 c -0.5859375,0 -0.6210937,-0.046875 -0.6210937,-0.38671875 V -3.9623672 l -1.2890625,0.09375 v 0.28125 c 0.5742187,0 0.6445312,0.058594 0.6445312,0.4921875 v 2.40234376 c 0,0.41015625 -0.09375,0.41015625 -0.6796875,0.41015625 v 0.28125 c 0.3984375,-0.0234375 0.5859375,-0.0234375 0.984375,-0.0234375 0.140625,0 0.515625,0 0.9609375,0.0234375 z M 8.9862891,-5.4037734 c 0,-0.2695313 -0.2226563,-0.4921875 -0.4921875,-0.4921875 -0.2695313,0 -0.4804688,0.2226562 -0.4804688,0.4921875 0,0.2695312 0.2109375,0.4804687 0.4804688,0.4804687 0.2695312,0 0.4921875,-0.2109375 0.4921875,-0.4804687 z m 5.6953129,5.40234371 v -0.28125 c -0.457032,0 -0.679688,0 -0.679688,-0.26953125 V -2.2748672 c 0,-0.75 0,-1.0078125 -0.257812,-1.3242187 -0.199219,-0.2460938 -0.550782,-0.3632813 -0.996094,-0.3632813 -0.832031,0 -1.21875,0.6210938 -1.347656,0.8671875 v -0.8671875 l -1.300782,0.09375 v 0.28125 c 0.609375,0 0.691407,0.058594 0.691407,0.5039063 v 2.39062496 c 0,0.41015625 -0.105469,0.41015625 -0.691407,0.41015625 v 0.28125 c 0.421875,-0.0234375 0.585938,-0.0234375 1.019532,-0.0234375 0.433593,0 0.550781,0 1.019531,0.0234375 v -0.28125 c -0.585938,0 -0.691406,0 -0.691406,-0.41015625 V -2.3217422 c 0,-0.9492187 0.679687,-1.4179687 1.242187,-1.4179687 0.527344,0 0.644531,0.4335937 0.644531,0.9726562 v 2.07421876 c 0,0.41015625 -0.09375,0.41015625 -0.691406,0.41015625 v 0.28125 c 0.421875,-0.0234375 0.597656,-0.0234375 1.019531,-0.0234375 0.433594,0 0.550782,0 1.019532,0.0234375 z m 4.696289,-3.60937501 c 0,-0.1757812 -0.128907,-0.4570312 -0.492188,-0.4570312 -0.257812,0 -0.65625,0.1054687 -0.972656,0.421875 -0.246094,-0.1875 -0.585938,-0.3164063 -0.972656,-0.3164063 -0.84375,0 -1.488282,0.609375 -1.488282,1.3125 0,0.4570313 0.269532,0.7851563 0.410157,0.9140625 -0.02344,0.023437 -0.269532,0.3398438 -0.269532,0.75000001 0,0.3046875 0.140625,0.62109375 0.386719,0.78515625 -0.457031,0.140625 -0.820312,0.48046875 -0.820312,0.90234375 0,0.63281249 0.890625,1.14843749 2.039062,1.14843749 1.101563,0 2.039063,-0.4804687 2.039063,-1.17187499 0,-0.36328125 -0.164063,-0.76171875 -0.503907,-0.97265625 -0.492187,-0.31640625 -1.019531,-0.31640625 -1.863281,-0.31640625 -0.1875,0 -0.46875,0 -0.539062,-0.0234375 -0.269532,-0.046875 -0.433594,-0.29296875 -0.433594,-0.57421871 0,-0.1523438 0.04687,-0.28125 0.128906,-0.3984375 0.222656,0.140625 0.492188,0.28125 0.914063,0.28125 0.84375,0 1.488281,-0.609375 1.488281,-1.3242188 0,-0.4335937 -0.246094,-0.7382812 -0.363281,-0.8671875 0.363281,-0.3164062 0.785156,-0.3164062 0.890625,-0.3164062 -0.04687,0.023437 -0.117188,0.070312 -0.117188,0.2226562 0,0.1054688 0.05859,0.2695313 0.269531,0.2695313 0.117188,0 0.269532,-0.082031 0.269532,-0.2695313 z m -1.628907,0.9609375 c 0,0.2109375 0,1.078125 -0.808593,1.078125 -0.796875,0 -0.796875,-0.8789062 -0.796875,-1.078125 0,-0.234375 0.01172,-0.5390625 0.164062,-0.7617187 0.140625,-0.1757813 0.375,-0.3046875 0.632813,-0.3046875 0.808593,0 0.808593,0.8671875 0.808593,1.0664062 z m 0.984375,3.33984376 c 0,0.51562504 -0.679687,0.91406254 -1.523437,0.91406254 -0.878906,0 -1.546875,-0.421875 -1.546875,-0.91406254 0,-0.140625 0.09375,-0.73828125 0.855469,-0.73828125 h 0.832031 c 0.28125,0 1.382812,0.01171875 1.382812,0.73828125 z m 3.120118,-0.69140625 v -0.28125 c -0.597657,0 -0.691407,0 -0.691407,-0.41015625 V -6.2240859 l -1.324218,0.1054687 v 0.2695313 c 0.609375,0 0.679687,0.070312 0.679687,0.5039062 v 4.65234376 c 0,0.41015625 -0.09375,0.41015625 -0.679687,0.41015625 v 0.28125 c 0.410156,-0.0234375 0.585937,-0.0234375 0.996093,-0.0234375 0.421875,0 0.574219,0 1.019532,0.0234375 z m 4.054687,-1.06640621 c 0,-0.058594 -0.04687,-0.1171875 -0.128906,-0.1171875 -0.09375,0 -0.117188,0.058594 -0.128906,0.09375 -0.304688,0.91406246 -1.101563,0.93749996 -1.230469,0.93749996 -0.433594,0 -0.796875,-0.24609375 -1.007813,-0.55078125 C 23.119102,-1.1381484 23.107383,-1.6772109 23.107383,-2.0522109 h 2.554687 c 0.199219,0 0.246094,0 0.246094,-0.1875 0,-0.9257813 -0.503906,-1.78125 -1.652344,-1.78125 -1.078125,0 -1.921875,0.9375 -1.921875,2.0507812 0,1.17187501 0.949219,2.06250001 2.039063,2.06250001 1.089844,0 1.535156,-0.94921875 1.535156,-1.16015621 z m -0.609375,-1.2070313 h -2.179687 c 0.08203,-1.3710937 0.878906,-1.5234375 1.136718,-1.5234375 0.492188,0 1.03125,0.3867188 1.042969,1.5234375 z m 8.847656,2.27343751 v -0.28125 c -0.457031,0 -0.679687,0 -0.679687,-0.26953125 V -2.2748672 c 0,-0.75 0,-1.0078125 -0.257813,-1.3242187 -0.199218,-0.2460938 -0.550781,-0.3632813 -0.996093,-0.3632813 -0.832032,0 -1.21875,0.6210938 -1.347657,0.8671875 v -0.8671875 l -1.300781,0.09375 v 0.28125 c 0.609375,0 0.691406,0.058594 0.691406,0.5039063 v 2.39062496 c 0,0.41015625 -0.105468,0.41015625 -0.691406,0.41015625 v 0.28125 c 0.421875,-0.0234375 0.585938,-0.0234375 1.019531,-0.0234375 0.433594,0 0.550782,0 1.019532,0.0234375 v -0.28125 c -0.585938,0 -0.691407,0 -0.691407,-0.41015625 V -2.3217422 c 0,-0.9492187 0.679688,-1.4179687 1.242188,-1.4179687 0.527344,0 0.644531,0.4335937 0.644531,0.9726562 v 2.07421876 c 0,0.41015625 -0.09375,0.41015625 -0.691406,0.41015625 v 0.28125 c 0.421875,-0.0234375 0.597656,-0.0234375 1.019531,-0.0234375 0.433594,0 0.550781,0 1.019531,0.0234375 z m 4.558594,-1.91015621 c 0,-1.171875 -0.925781,-2.109375 -2.027344,-2.109375 -1.148437,0 -2.050781,0.9609375 -2.050781,2.109375 0,1.12499996 0.9375,2.00390621 2.039063,2.00390621 1.136718,0 2.039062,-0.90234375 2.039062,-2.00390621 z m -0.773437,-0.082031 c 0,0.328125 0,0.8554688 -0.222657,1.25390626 -0.246093,0.41015625 -0.65625,0.5859375 -1.03125,0.5859375 -0.457031,0 -0.832031,-0.22265625 -1.03125,-0.57421875 -0.234375,-0.37500001 -0.246093,-0.85546871 -0.246093,-1.26562501 0,-0.328125 0,-0.84375 0.222656,-1.2070312 0.269531,-0.4570313 0.714844,-0.5976563 1.042969,-0.5976563 0.503906,0 0.878906,0.2929688 1.054687,0.5976563 0.210938,0.375 0.210938,0.8320312 0.210938,1.2070312 z m 6.146484,1.99218751 v -0.28125 c -0.609375,0 -0.691406,-0.0585938 -0.691406,-0.50390625 V -6.2240859 l -1.324219,0.1054687 v 0.2695313 c 0.609375,0 0.691406,0.070312 0.691406,0.5039062 v 1.9101563 c -0.04687,-0.058594 -0.445312,-0.5273438 -1.148437,-0.5273438 -1.101563,0 -2.0625,0.8789063 -2.0625,2.0390625 0,1.11328126 0.902343,2.01562501 1.96875,2.01562501 0.644531,0 1.054687,-0.375 1.21875,-0.57421875 V 0.09232031 Z M 42.73043,-1.0795547 c 0,0.16406251 0,0.18750001 -0.140625,0.37500001 -0.28125,0.41015625 -0.691407,0.57421875 -1.042969,0.57421875 -0.386719,0 -0.75,-0.2109375 -0.984375,-0.5859375 -0.234375,-0.38671876 -0.246094,-0.91406246 -0.246094,-1.20703126 0,-0.421875 0.04687,-0.890625 0.28125,-1.2539062 0.199219,-0.28125 0.5625,-0.5625 1.042969,-0.5625 0.375,0 0.738281,0.1875 0.972656,0.5273437 0.117188,0.140625 0.117188,0.1523438 0.117188,0.328125 z m 5.458008,0.011719 c 0,-0.058594 -0.04687,-0.1171875 -0.128907,-0.1171875 -0.09375,0 -0.117187,0.058594 -0.128906,0.09375 -0.304687,0.91406246 -1.101562,0.93749996 -1.230469,0.93749996 -0.433593,0 -0.796875,-0.24609375 -1.007812,-0.55078125 C 45.399375,-1.1381484 45.387656,-1.6772109 45.387656,-2.0522109 h 2.554688 c 0.199219,0 0.246094,0 0.246094,-0.1875 0,-0.9257813 -0.503907,-1.78125 -1.652344,-1.78125 -1.078125,0 -1.921875,0.9375 -1.921875,2.0507812 0,1.17187501 0.949219,2.06250001 2.039062,2.06250001 1.089844,0 1.535157,-0.94921875 1.535157,-1.16015601 z M 47.579063,-2.274867 h -2.179688 c 0.08203,-1.3710937 0.878906,-1.5234375 1.136719,-1.5234375 0.492187,0 1.03125,0.3867188 1.042969,1.5234375 z m 3.547851,0.023437 c 0,-0.7382812 -0.105469,-1.7226562 -0.574219,-2.71875 -0.527343,-1.1015625 -1.359375,-1.7578125 -1.464843,-1.7578125 -0.09375,0 -0.117188,0.070312 -0.117188,0.1054688 0,0.035156 0.02344,0.070312 0.08203,0.1289062 0.527344,0.46875 1.511719,1.6875 1.511719,4.2421875 0,1.27734376 -0.234375,3.07031251 -1.535156,4.2773438 -0.02344,0.023437 -0.05859,0.058594 -0.05859,0.1054687 0,0.023437 0.02344,0.09375 0.117188,0.09375 0.105468,0 0.914062,-0.6445312 1.394531,-1.61718749 C 50.91598,-0.24752374 51.126917,-1.173305 51.126917,-2.25143 Z m 0,0"
       style="fill:#000000;fill-opacity:1;fill-rule:nonzero;stroke:none"
       aria-label="(singlenode)"
       transform="matrix(1.3333333,0,0,1.3333333,139.28,305.748)" />
    <path
       id="path14"
       d="m 6.5622031,-0.00124219 v -0.28125 H 6.3512656 c -0.6914062,0 -0.703125,-0.09375 -0.703125,-0.421875 V -5.4153047 c 0,-0.328125 0.011719,-0.4335937 0.703125,-0.4335937 h 0.2109375 v -0.2695313 c -0.3984375,0.023437 -0.9023437,0.023437 -1.3125,0.023437 -0.421875,0 -0.9257812,0 -1.3242187,-0.023437 v 0.2695313 h 0.2109375 c 0.6914062,0 0.703125,0.1054687 0.703125,0.4335937 v 2.0859375 H 2.0622031 v -2.0859375 c 0,-0.328125 0.011719,-0.4335937 0.703125,-0.4335937 h 0.2109375 v -0.2695313 c -0.3984375,0.023437 -0.9023437,0.023437 -1.3125,0.023437 -0.421875,0 -0.92578122,0 -1.32421872,-0.023437 v 0.2695313 h 0.2109375 c 0.69140622,0 0.70312502,0.1054687 0.70312502,0.4335937 v 4.71093751 c 0,0.328125 -0.011719,0.421875 -0.70312502,0.421875 h -0.2109375 v 0.28125 c 0.3984375,-0.0234375 0.90234372,-0.0234375 1.32421872,-0.0234375 0.4101563,0 0.9140625,0 1.3125,0.0234375 v -0.28125 H 2.7653281 c -0.6914062,0 -0.703125,-0.09375 -0.703125,-0.421875 V -3.0481172 h 2.7773438 v 2.34375001 c 0,0.328125 -0.011719,0.421875 -0.703125,0.421875 H 3.9254844 v 0.28125 c 0.3984375,-0.0234375 0.9023437,-0.0234375 1.3242187,-0.0234375 0.4101563,0 0.9140625,0 1.3125,0.0234375 z M 12.925484,-1.6301484 c 0,-0.8085938 -0.785156,-1.4648438 -1.78125,-1.5703125 0.890625,-0.1757813 1.511719,-0.75 1.511719,-1.40625 0,-0.796875 -0.855469,-1.5117188 -2.039062,-1.5117188 H 7.2770469 v 0.2695313 h 0.2109375 c 0.6914062,0 0.703125,0.1054687 0.703125,0.4335937 v 4.71093751 c 0,0.328125 -0.011719,0.421875 -0.703125,0.421875 H 7.2770469 v 0.28125 h 3.5859371 c 1.21875,0 2.0625,-0.796875 2.0625,-1.62890621 z m -1.125,-2.9765625 c 0,0.6914062 -0.597656,1.3007812 -1.441406,1.3007812 H 8.9528281 v -2.1679687 c 0,-0.3046875 0.011719,-0.375 0.4335938,-0.375 h 1.1718751 c 0.878906,0 1.242187,0.703125 1.242187,1.2421875 z m 0.234375,2.953125 c 0,0.69140621 -0.539062,1.37109371 -1.464843,1.37109371 H 9.3864219 c -0.421875,0 -0.4335938,-0.0585938 -0.4335938,-0.36328125 V -3.0715547 h 1.6874999 c 1.042969,0 1.394531,0.8789063 1.394531,1.4179688 z m 5.859375,0.85546871 V -1.3020234 h -0.246093 v 0.49218746 c 0,0.10546875 0,0.55078125 -0.328125,0.55078125 -0.316407,0 -0.316407,-0.43359375 -0.316407,-0.57421875 V -2.4035859 c 0,-0.515625 0,-0.8203125 -0.410156,-1.1835938 -0.328125,-0.2929687 -0.761719,-0.4335937 -1.207031,-0.4335937 -0.75,0 -1.382813,0.375 -1.382813,0.9492187 0,0.28125 0.1875,0.4335938 0.421875,0.4335938 0.246094,0 0.410157,-0.1757813 0.410157,-0.4101563 0,-0.3867187 -0.398438,-0.4335937 -0.398438,-0.4335937 0.246094,-0.234375 0.667969,-0.3164063 0.925781,-0.3164063 0.457032,0 0.972657,0.3398438 0.972657,1.1367188 v 0.2929687 c -0.480469,0.023437 -1.160157,0.058594 -1.757813,0.3515625 -0.644531,0.3164063 -0.84375,0.7734375 -0.84375,1.13671876 0,0.73828125 0.867188,0.97265625 1.476563,0.97265625 0.738281,0 1.078125,-0.4921875 1.207031,-0.73828125 0.04687,0.375 0.304687,0.703125 0.691406,0.703125 0.222656,0 0.785156,-0.140625 0.785156,-0.85546875 z M 16.335641,-1.2668672 c 0,0.86718751 -0.667969,1.13671876 -1.066407,1.13671876 -0.421875,0 -0.820312,-0.3046875 -0.820312,-0.75 0,-0.58593746 0.515625,-1.21874996 1.886719,-1.27734376 z m 5.030273,0.1171875 c 0,-0.3984375 -0.175781,-0.6445312 -0.375,-0.8554687 -0.304687,-0.2929688 -0.632812,-0.3515625 -1.289062,-0.4804688 -0.234375,-0.046875 -0.890625,-0.1640625 -0.890625,-0.6679687 0,-0.2929688 0.210937,-0.6679688 1.019531,-0.6679688 0.972656,0 1.03125,0.75 1.054687,0.9726563 0.01172,0.1054687 0.01172,0.1640625 0.117188,0.1640625 0.128906,0 0.128906,-0.070312 0.128906,-0.234375 v -0.8671875 c 0,-0.1523438 0,-0.234375 -0.105469,-0.234375 -0.04687,0 -0.05859,0 -0.175781,0.1054687 -0.02344,0.023437 -0.105469,0.1054688 -0.152344,0.1523438 -0.28125,-0.1992188 -0.5625,-0.2578125 -0.867187,-0.2578125 -1.183594,0 -1.476563,0.65625 -1.476563,1.1132812 0,0.2929688 0.128907,0.5273438 0.328125,0.7148438 0.304688,0.28125 0.644532,0.3398437 1.101563,0.421875 0.457031,0.09375 0.609375,0.1171875 0.808594,0.2695312 0.09375,0.070312 0.316406,0.2460938 0.316406,0.58593751 0,0.78515625 -0.902344,0.78515625 -1.03125,0.78515625 -0.914063,0 -1.148438,-0.76171875 -1.253906,-1.24218746 -0.02344,-0.09375 -0.03516,-0.140625 -0.140625,-0.140625 -0.128907,0 -0.128907,0.070312 -0.128907,0.234375 v 1.14843746 c 0,0.15234375 0,0.22265625 0.105469,0.22265625 0.05859,0 0.07031,0 0.222656,-0.17578125 0.03516,-0.046875 0.140625,-0.1640625 0.1875,-0.2109375 0.375,0.36328125 0.785157,0.38671875 1.007813,0.38671875 1.101562,0 1.488281,-0.64453125 1.488281,-1.24218751 z m 4.145508,0.082031 c 0,-0.058594 -0.04687,-0.1171875 -0.128906,-0.1171875 -0.09375,0 -0.117188,0.058594 -0.128907,0.09375 -0.304687,0.91406246 -1.101562,0.93749996 -1.230468,0.93749996 -0.433594,0 -0.796875,-0.24609375 -1.007813,-0.55078125 C 22.722359,-1.1379609 22.710641,-1.6770234 22.710641,-2.0520234 h 2.554687 c 0.199219,0 0.246094,0 0.246094,-0.1875 0,-0.9257813 -0.503906,-1.78125 -1.652344,-1.78125 -1.078125,0 -1.921875,0.9375 -1.921875,2.0507812 0,1.17187501 0.949219,2.06250001 2.039063,2.06250001 1.089843,0 1.535156,-0.94921875 1.535156,-1.16015651 z M 24.902047,-2.27468 h -2.179688 c 0.08203,-1.3710937 0.878907,-1.5234375 1.136719,-1.5234375 0.492188,0 1.03125,0.3867188 1.042969,1.5234375 z m 0,0"
       style="fill:#000000;fill-opacity:1;fill-rule:nonzero;stroke:none"
       aria-label="HBase"
       transform="matrix(1.3333333,0,0,1.3333333,50.961333,117.404)" />
    <path
       id="path15"
       d="m 8.0496641,-2.8125e-4 v -0.28125 H 7.8387266 c -0.6914063,0 -0.703125,-0.09375 -0.703125,-0.421875 V -5.4143438 c 0,-0.328125 0.011719,-0.4335937 0.703125,-0.4335937 H 8.0496641 V -6.1174688 H 6.5379453 c -0.1875,0 -0.2460937,0 -0.3046875,0.1523438 l -2.015625,5.0859375 -2.0039062,-5.0507813 c -0.070312,-0.1757812 -0.082031,-0.1875 -0.328125,-0.1875 H 0.38560156 v 0.2695313 h 0.19921875 c 0.69140629,0 0.71484379,0.1054687 0.71484379,0.4335937 V -0.9495 c 0,0.24609375 0,0.66796875 -0.91406254,0.66796875 v 0.28125 c 0.4921875,-0.0234375 0.62109374,-0.0234375 1.05468754,-0.0234375 0.4335937,0 0.5625,0 1.0546875,0.0234375 v -0.28125 c -0.9140625,0 -0.9140625,-0.421875 -0.9140625,-0.66796875 V -5.7541875 L 3.7957578,-0.1995 c 0.035156,0.1171875 0.070312,0.19921875 0.1875,0.19921875 0.09375,0 0.140625,-0.08203125 0.1757813,-0.1640625 L 6.3973203,-5.8245 l 0.011719,0.011719 v 5.10937505 c 0,0.328125 -0.023437,0.421875 -0.703125,0.421875 H 5.4949766 v 0.28125 c 0.5390625,-0.0234375 1.1367187,-0.0234375 1.2773437,-0.0234375 0.046875,0 0.7148438,0 1.2773438,0.0234372 z M 12.781109,-1.9104375 c 0,-1.171875 -0.925781,-2.109375 -2.027343,-2.109375 -1.1484379,0 -2.0507816,0.9609375 -2.0507816,2.109375 0,1.125 0.9375,2.00390625 2.0390626,2.00390625 1.136719,0 2.039062,-0.90234375 2.039062,-2.00390625 z m -0.773437,-0.082031 c 0,0.328125 0,0.8554688 -0.222656,1.2539063 -0.246094,0.41015625 -0.65625,0.5859375 -1.03125,0.5859375 -0.457032,0 -0.8320316,-0.22265625 -1.0312504,-0.57421875 C 9.4881406,-1.1018438 9.4764219,-1.5823125 9.4764219,-1.9924688 c 0,-0.328125 0,-0.84375 0.2226562,-1.2070312 0.2695313,-0.4570313 0.7148439,-0.5976563 1.0429689,-0.5976563 0.503906,0 0.878906,0.2929688 1.054687,0.5976563 0.210938,0.375 0.210938,0.8320312 0.210938,1.2070315 z m 5.947266,1.99218755 v -0.28125 c -0.457032,0 -0.679688,0 -0.679688,-0.26953125 v -1.7226563 c 0,-0.75 0,-1.0078125 -0.257812,-1.3242187 -0.199219,-0.2460938 -0.550782,-0.3632813 -0.996094,-0.3632813 -0.832031,0 -1.21875,0.6210938 -1.347656,0.8671875 v -0.8671875 l -1.300782,0.09375 v 0.28125 c 0.609375,0 0.691407,0.058594 0.691407,0.5039063 v 2.390625 c 0,0.41015625 -0.105469,0.41015625 -0.691407,0.41015625 v 0.28125 c 0.421875,-0.0234375 0.585938,-0.0234375 1.019532,-0.0234375 0.433593,0 0.550781,0 1.019531,0.0234375 v -0.28125 c -0.585938,0 -0.691406,0 -0.691406,-0.41015625 v -1.6289063 c 0,-0.9492187 0.679687,-1.4179687 1.242187,-1.4179687 0.527344,0 0.644531,0.4335937 0.644531,0.9726562 v 2.0742188 c 0,0.41015625 -0.09375,0.41015625 -0.691406,0.41015625 v 0.28125 c 0.421875,-0.0234375 0.597656,-0.0234375 1.019531,-0.0234375 0.433594,0 0.550782,0 1.019532,0.0234375 z M 22.651227,-3.609656 c 0,-0.1757812 -0.128907,-0.4570312 -0.492188,-0.4570312 -0.257812,0 -0.65625,0.1054687 -0.972656,0.421875 -0.246094,-0.1875 -0.585938,-0.3164063 -0.972656,-0.3164063 -0.84375,0 -1.488282,0.609375 -1.488282,1.3125 0,0.4570313 0.269532,0.7851563 0.410157,0.9140625 -0.02344,0.023437 -0.269532,0.3398438 -0.269532,0.75000005 0,0.3046875 0.140625,0.62109375 0.386719,0.78515625 -0.457031,0.140625 -0.820312,0.48046875 -0.820312,0.90234375 0,0.63281245 0.890625,1.14843745 2.039062,1.14843745 1.101563,0 2.039063,-0.4804687 2.039063,-1.17187495 0,-0.36328125 -0.164063,-0.76171875 -0.503907,-0.97265625 -0.492187,-0.31640625 -1.019531,-0.31640625 -1.863281,-0.31640625 -0.1875,0 -0.46875,0 -0.539062,-0.0234375 -0.269532,-0.046875 -0.433594,-0.29296875 -0.433594,-0.57421875 0,-0.1523438 0.04687,-0.28125 0.128906,-0.3984375 0.222656,0.140625 0.492188,0.28125 0.914063,0.28125 0.84375,0 1.488281,-0.609375 1.488281,-1.3242188 0,-0.4335937 -0.246094,-0.7382812 -0.363281,-0.8671875 0.363281,-0.3164062 0.785156,-0.3164062 0.890625,-0.3164062 -0.04687,0.023437 -0.117188,0.070312 -0.117188,0.2226562 0,0.1054688 0.05859,0.2695313 0.269531,0.2695313 0.117188,0 0.269532,-0.082031 0.269532,-0.2695313 z m -1.628907,0.9609375 c 0,0.2109375 0,1.078125 -0.808593,1.078125 -0.796875,0 -0.796875,-0.8789062 -0.796875,-1.078125 0,-0.234375 0.01172,-0.5390625 0.164062,-0.7617187 0.140625,-0.1757813 0.375,-0.3046875 0.632813,-0.3046875 0.808593,0 0.808593,0.8671875 0.808593,1.0664062 z m 0.984375,3.3398438 c 0,0.515625 -0.679687,0.9140625 -1.523437,0.9140625 -0.878906,0 -1.546875,-0.421875 -1.546875,-0.9140625 0,-0.140625 0.09375,-0.73828125 0.855469,-0.73828125 h 0.832031 c 0.28125,0 1.382812,0.01171875 1.382812,0.73828125 z M 27.119,-1.9104375 c 0,-1.171875 -0.925781,-2.109375 -2.027344,-2.109375 -1.148437,0 -2.050781,0.9609375 -2.050781,2.109375 0,1.125 0.9375,2.00390625 2.039063,2.00390625 1.136718,0 2.039062,-0.90234375 2.039062,-2.00390625 z m -0.773437,-0.082031 c 0,0.328125 0,0.8554688 -0.222657,1.2539063 -0.246093,0.41015625 -0.65625,0.5859375 -1.03125,0.5859375 -0.457031,0 -0.832031,-0.22265625 -1.03125,-0.57421875 -0.234375,-0.37500005 -0.246093,-0.85546875 -0.246093,-1.26562505 0,-0.328125 0,-0.84375 0.222656,-1.2070312 0.269531,-0.4570313 0.714844,-0.5976563 1.042969,-0.5976563 0.503906,0 0.878906,0.2929688 1.054687,0.5976563 0.210938,0.375 0.210938,0.8320312 0.210938,1.2070312 z M 33.907086,-3.012 c 0,-1.6992188 -1.242188,-3.1054688 -2.824219,-3.1054688 h -3.328125 v 0.2695313 h 0.199219 c 0.691406,0 0.714844,0.1054687 0.714844,0.4335937 v 4.71093755 c 0,0.328125 -0.02344,0.421875 -0.714844,0.421875 h -0.199219 v 0.28125 h 3.328125 c 1.558594,0 2.824219,-1.32421875 2.824219,-3.01171875 z m -0.890625,0 c 0,0.3632812 0,1.3125 -0.492188,1.9335937 -0.457031,0.60937505 -1.113281,0.79687505 -1.675781,0.79687505 h -0.960937 c -0.421875,0 -0.445313,-0.0585938 -0.445313,-0.36328125 v -4.828125 c 0,-0.3046875 0.02344,-0.375 0.445313,-0.375 h 0.960937 c 0.867188,0 1.40625,0.4570312 1.640625,0.7851562 0.398438,0.515625 0.527344,1.1601563 0.527344,2.0507813 z m 7.426758,1.3828125 c 0,-0.8085938 -0.785156,-1.4648438 -1.78125,-1.5703125 0.890625,-0.1757813 1.511719,-0.75 1.511719,-1.40625 0,-0.796875 -0.855469,-1.5117188 -2.039063,-1.5117188 h -3.339844 v 0.2695313 h 0.210938 c 0.691406,0 0.703125,0.1054687 0.703125,0.4335937 v 4.71093755 c 0,0.328125 -0.01172,0.421875 -0.703125,0.421875 h -0.210938 v 0.28125 h 3.585938 c 1.21875,0 2.0625,-0.796875 2.0625,-1.62890625 z m -1.125,-2.9765625 c 0,0.6914062 -0.597656,1.3007812 -1.441406,1.3007812 h -1.40625 v -2.1679687 c 0,-0.3046875 0.01172,-0.375 0.433593,-0.375 h 1.171875 c 0.878907,0 1.242188,0.703125 1.242188,1.2421875 z m 0.234375,2.953125 c 0,0.69140625 -0.539063,1.37109375 -1.464844,1.37109375 h -1.183594 c -0.421875,0 -0.433593,-0.0585938 -0.433593,-0.36328125 v -2.4257813 h 1.6875 c 1.042968,0 1.394531,0.8789063 1.394531,1.4179688 z m 0,0"
       style="fill:#000000;fill-opacity:1;fill-rule:nonzero;stroke:none"
       aria-label="MongoDB"
       transform="matrix(1.3333333,0,0,1.3333333,40.841333,132.016)" />
    <path
       id="path16"
       d="m 6.1275703,-2.0729922 c 0,-0.09375 0,-0.1757812 -0.1171875,-0.1757812 -0.1171875,0 -0.1171875,0.058594 -0.1289062,0.140625 -0.070312,1.37109371 -1.1484375,2.02734371 -2.0742188,2.02734371 -0.7617187,0 -2.3789062,-0.46875 -2.3789062,-2.98828121 0,-2.4960938 1.6289062,-2.9765625 2.3671875,-2.9765625 0.890625,0 1.828125,0.6796875 2.0507812,2.1328125 0.011719,0.1171875 0.023437,0.1523437 0.140625,0.1523437 0.140625,0 0.140625,-0.035156 0.140625,-0.2226562 v -2.0976563 c 0,-0.1523437 0,-0.234375 -0.1054687,-0.234375 -0.058594,0 -0.09375,0.023437 -0.140625,0.1054688 l -0.4570313,0.6679687 c -0.2929687,-0.2695312 -0.796875,-0.7734375 -1.7109375,-0.7734375 -1.734375,0 -3.19921874,1.4414063 -3.19921874,3.2460938 0,1.8515625 1.48828124,3.26953121 3.19921874,3.26953121 1.4882813,0 2.4140625,-1.23046871 2.4140625,-2.27343751 z m 4.9775387,1.27734376 V -1.2995547 h -0.246093 v 0.49218751 c 0,0.10546875 0,0.55078125 -0.328125,0.55078125 -0.316407,0 -0.316407,-0.43359375 -0.316407,-0.57421875 V -2.4011172 c 0,-0.515625 0,-0.8203125 -0.4101559,-1.1835937 -0.328125,-0.2929688 -0.7617187,-0.4335938 -1.2070312,-0.4335938 -0.75,0 -1.3828125,0.375 -1.3828125,0.9492188 0,0.28125 0.1875,0.4335937 0.421875,0.4335937 0.2460937,0 0.4101562,-0.1757812 0.4101562,-0.4101562 0,-0.3867188 -0.3984375,-0.4335938 -0.3984375,-0.4335938 0.2460938,-0.234375 0.6679688,-0.3164062 0.9257813,-0.3164062 0.4570312,0 0.9726562,0.3398437 0.9726562,1.1367187 v 0.2929688 c -0.4804687,0.023437 -1.1601562,0.058594 -1.7578125,0.3515625 -0.6445312,0.3164062 -0.84375,0.7734375 -0.84375,1.13671871 0,0.73828125 0.8671875,0.97265625 1.4765625,0.97265625 0.7382813,0 1.078125,-0.4921875 1.2070313,-0.73828125 0.046875,0.375 0.3046875,0.703125 0.6914061,0.703125 0.222656,0 0.785156,-0.140625 0.785156,-0.85546875 z M 9.5465156,-1.2643984 c 0,0.86718746 -0.6679687,1.13671871 -1.0664062,1.13671871 -0.421875,0 -0.8203125,-0.3046875 -0.8203125,-0.75 0,-0.58593751 0.515625,-1.21875001 1.8867187,-1.27734371 z m 5.0302734,0.1171875 c 0,-0.3984375 -0.175781,-0.6445313 -0.375,-0.8554688 -0.304687,-0.2929687 -0.632812,-0.3515625 -1.289062,-0.4804687 -0.234375,-0.046875 -0.890625,-0.1640625 -0.890625,-0.6679688 0,-0.2929687 0.210937,-0.6679687 1.019531,-0.6679687 0.972656,0 1.03125,0.75 1.054687,0.9726562 0.01172,0.1054688 0.01172,0.1640625 0.117188,0.1640625 0.128906,0 0.128906,-0.070312 0.128906,-0.234375 v -0.8671875 c 0,-0.1523437 0,-0.234375 -0.105469,-0.234375 -0.04687,0 -0.05859,0 -0.175781,0.1054688 -0.02344,0.023437 -0.105469,0.1054687 -0.152344,0.1523437 -0.28125,-0.1992187 -0.5625,-0.2578125 -0.867187,-0.2578125 -1.183594,0 -1.476563,0.65625 -1.476563,1.1132813 0,0.2929687 0.128907,0.5273437 0.328125,0.7148437 0.304688,0.28125 0.644532,0.3398438 1.101563,0.421875 0.457031,0.09375 0.609375,0.1171875 0.808594,0.2695313 0.09375,0.070312 0.316406,0.2460937 0.316406,0.58593746 0,0.78515625 -0.902344,0.78515625 -1.03125,0.78515625 -0.914063,0 -1.148438,-0.76171875 -1.253906,-1.24218751 -0.02344,-0.09375 -0.03516,-0.140625 -0.140625,-0.140625 -0.128907,0 -0.128907,0.070312 -0.128907,0.234375 v 1.14843751 c 0,0.15234375 0,0.22265625 0.105469,0.22265625 0.05859,0 0.07031,0 0.222656,-0.17578125 0.03516,-0.046875 0.140625,-0.1640625 0.1875,-0.2109375 0.375,0.36328125 0.785157,0.38671875 1.007813,0.38671875 1.101562,0 1.488281,-0.64453125 1.488281,-1.24218746 z m 3.632813,0 c 0,-0.3984375 -0.175782,-0.6445313 -0.375,-0.8554688 -0.304688,-0.2929687 -0.632813,-0.3515625 -1.289063,-0.4804687 -0.234375,-0.046875 -0.890625,-0.1640625 -0.890625,-0.6679688 0,-0.2929687 0.210938,-0.6679687 1.019531,-0.6679687 0.972657,0 1.03125,0.75 1.054688,0.9726562 0.01172,0.1054688 0.01172,0.1640625 0.117187,0.1640625 0.128907,0 0.128907,-0.070312 0.128907,-0.234375 v -0.8671875 c 0,-0.1523437 0,-0.234375 -0.105469,-0.234375 -0.04687,0 -0.05859,0 -0.175781,0.1054688 -0.02344,0.023437 -0.105469,0.1054687 -0.152344,0.1523437 -0.28125,-0.1992187 -0.5625,-0.2578125 -0.867188,-0.2578125 -1.183593,0 -1.476562,0.65625 -1.476562,1.1132813 0,0.2929687 0.128906,0.5273437 0.328125,0.7148437 0.304687,0.28125 0.644531,0.3398438 1.101562,0.421875 0.457032,0.09375 0.609375,0.1171875 0.808594,0.2695313 0.09375,0.070312 0.316406,0.2460937 0.316406,0.58593746 0,0.78515625 -0.902343,0.78515625 -1.03125,0.78515625 -0.914062,0 -1.148437,-0.76171875 -1.253906,-1.24218751 -0.02344,-0.09375 -0.03516,-0.140625 -0.140625,-0.140625 -0.128906,0 -0.128906,0.070312 -0.128906,0.234375 v 1.14843751 c 0,0.15234375 0,0.22265625 0.105469,0.22265625 0.05859,0 0.07031,0 0.222656,-0.17578125 0.03516,-0.046875 0.140625,-0.1640625 0.1875,-0.2109375 0.375,0.36328125 0.785156,0.38671875 1.007812,0.38671875 1.101563,0 1.488282,-0.64453125 1.488282,-1.24218746 z m 4.766601,0.35156246 V -1.2995547 h -0.246094 v 0.49218751 c 0,0.10546875 0,0.55078125 -0.328125,0.55078125 -0.316406,0 -0.316406,-0.43359375 -0.316406,-0.57421875 V -2.4011172 c 0,-0.515625 0,-0.8203125 -0.410156,-1.1835937 -0.328125,-0.2929688 -0.761719,-0.4335938 -1.207031,-0.4335938 -0.75,0 -1.382813,0.375 -1.382813,0.9492188 0,0.28125 0.1875,0.4335937 0.421875,0.4335937 0.246094,0 0.410156,-0.1757812 0.410156,-0.4101562 0,-0.3867188 -0.398437,-0.4335938 -0.398437,-0.4335938 0.246094,-0.234375 0.667969,-0.3164062 0.925781,-0.3164062 0.457031,0 0.972656,0.3398437 0.972656,1.1367187 v 0.2929688 c -0.480468,0.023437 -1.160156,0.058594 -1.757812,0.3515625 -0.644531,0.3164062 -0.84375,0.7734375 -0.84375,1.13671871 0,0.73828125 0.867187,0.97265625 1.476562,0.97265625 0.738282,0 1.078125,-0.4921875 1.207032,-0.73828125 0.04687,0.375 0.304687,0.703125 0.691406,0.703125 0.222656,0 0.785156,-0.140625 0.785156,-0.85546875 z M 21.417609,-1.2643984 c 0,0.86718746 -0.667968,1.13671871 -1.066406,1.13671871 -0.421875,0 -0.820312,-0.3046875 -0.820312,-0.75 0,-0.58593751 0.515625,-1.21875001 1.886718,-1.27734371 z m 6.615235,1.26562496 v -0.28125 c -0.457032,0 -0.679688,0 -0.679688,-0.26953125 V -2.2722109 c 0,-0.75 0,-1.0078125 -0.257812,-1.3242188 -0.199219,-0.2460937 -0.550782,-0.3632812 -0.996094,-0.3632812 -0.832031,0 -1.21875,0.6210937 -1.347656,0.8671875 v -0.8671875 l -1.300782,0.09375 v 0.28125 c 0.609375,0 0.691407,0.058594 0.691407,0.5039062 v 2.39062501 c 0,0.41015625 -0.105469,0.41015625 -0.691407,0.41015625 v 0.28125 c 0.421875,-0.0234375 0.585938,-0.0234375 1.019532,-0.0234375 0.433593,0 0.550781,0 1.019531,0.0234375 v -0.28125 c -0.585938,0 -0.691406,0 -0.691406,-0.41015625 V -2.3190859 c 0,-0.9492188 0.679687,-1.4179688 1.242187,-1.4179688 0.527344,0 0.644531,0.4335938 0.644531,0.9726563 v 2.07421871 c 0,0.41015625 -0.09375,0.41015625 -0.691406,0.41015625 v 0.28125 c 0.421875,-0.0234375 0.597656,-0.0234375 1.019531,-0.0234375 0.433594,0 0.550782,0 1.019532,0.0234375 z m 5.05957,0 v -0.28125 c -0.609375,0 -0.691406,-0.0585938 -0.691406,-0.50390625 V -6.2214297 l -1.324219,0.1054688 v 0.2695312 c 0.609375,0 0.691406,0.070312 0.691406,0.5039063 v 1.9101562 c -0.04687,-0.058594 -0.445312,-0.5273437 -1.148437,-0.5273437 -1.101563,0 -2.0625,0.8789062 -2.0625,2.0390625 0,1.11328121 0.902344,2.01562496 1.96875,2.01562496 0.644531,0 1.054687,-0.375 1.21875,-0.57421875 V 0.09497656 Z M 31.744758,-1.0768984 c 0,0.16406246 0,0.18749996 -0.140625,0.37499996 -0.28125,0.41015625 -0.691406,0.57421875 -1.042969,0.57421875 -0.386719,0 -0.75,-0.2109375 -0.984375,-0.5859375 -0.234375,-0.38671871 -0.246094,-0.91406251 -0.246094,-1.20703121 0,-0.421875 0.04687,-0.890625 0.28125,-1.2539063 0.199219,-0.28125 0.5625,-0.5625 1.042969,-0.5625 0.375,0 0.738281,0.1875 0.972656,0.5273438 0.117188,0.140625 0.117188,0.1523437 0.117188,0.328125 z m 4.96875,-2.3320313 c 0,-0.28125 -0.269531,-0.5507812 -0.667969,-0.5507812 -0.539062,0 -0.914062,0.375 -1.125,0.9257812 v -0.9257812 l -1.277344,0.09375 v 0.28125 c 0.609375,0 0.691407,0.058594 0.691407,0.5039062 v 2.39062501 c 0,0.41015625 -0.105469,0.41015625 -0.691407,0.41015625 v 0.28125 c 0.46875,-0.0234375 0.585938,-0.0234375 1.042969,-0.0234375 l 1.148438,0.0234375 v -0.28125 h -0.1875 c -0.65625,0 -0.679688,-0.09375 -0.679688,-0.421875 V -2.0495547 c 0,-0.375 0.105469,-1.6875 1.125,-1.6875 v 0.011719 c -0.02344,0.011719 -0.164062,0.1171875 -0.164062,0.328125 0,0.2460937 0.1875,0.3984375 0.398437,0.3984375 0.1875,0 0.386719,-0.140625 0.386719,-0.4101565 z m 4.716797,2.61328126 V -1.2995547 h -0.246094 v 0.49218751 c 0,0.10546875 0,0.55078125 -0.328125,0.55078125 -0.316406,0 -0.316406,-0.43359375 -0.316406,-0.57421875 V -2.4011172 c 0,-0.515625 0,-0.8203125 -0.410157,-1.1835937 -0.328125,-0.2929688 -0.761718,-0.4335938 -1.207031,-0.4335938 -0.75,0 -1.382812,0.375 -1.382812,0.9492188 0,0.28125 0.1875,0.4335937 0.421875,0.4335937 0.246093,0 0.410156,-0.1757812 0.410156,-0.4101562 0,-0.3867188 -0.398438,-0.4335938 -0.398438,-0.4335938 0.246094,-0.234375 0.667969,-0.3164062 0.925782,-0.3164062 0.457031,0 0.972656,0.3398437 0.972656,1.1367187 v 0.2929688 c -0.480469,0.023437 -1.160156,0.058594 -1.757813,0.3515625 -0.644531,0.3164062 -0.84375,0.7734375 -0.84375,1.13671871 0,0.73828125 0.867188,0.97265625 1.476563,0.97265625 0.738281,0 1.078125,-0.4921875 1.207031,-0.73828125 0.04687,0.375 0.304688,0.703125 0.691406,0.703125 0.222657,0 0.785157,-0.140625 0.785157,-0.85546875 z M 39.871711,-1.2643984 c 0,0.86718746 -0.667969,1.13671871 -1.066406,1.13671871 -0.421875,0 -0.820313,-0.3046875 -0.820313,-0.75 0,-0.58593751 0.515625,-1.21875001 1.886719,-1.27734371 z m 0,0"
       style="fill:#000000;fill-opacity:1;fill-rule:nonzero;stroke:none"
       aria-label="Cassandra"
       transform="matrix(1.3333333,0,0,1.3333333,252.076,117.54133)" />
    <path
       id="path17"
       d="m 6.5149531,-3.0124609 c 0,-1.6992188 -1.2421875,-3.1054688 -2.8242187,-3.1054688 H 0.36260938 v 0.2695313 h 0.19921875 c 0.69140627,0 0.71484377,0.1054687 0.71484377,0.4335937 v 4.71093751 c 0,0.328125 -0.023437,0.421875 -0.71484377,0.421875 H 0.36260938 V -7.421875e-4 H 3.6907344 c 1.5585937,0 2.8242187,-1.3242187125 2.8242187,-3.0117187125 z m -0.890625,0 c 0,0.3632812 0,1.3125 -0.4921875,1.9335937 -0.4570312,0.60937501 -1.1132812,0.79687501 -1.6757812,0.79687501 H 2.4954219 c -0.421875,0 -0.4453125,-0.0585938 -0.4453125,-0.36328125 V -5.4733984 c 0,-0.3046875 0.023437,-0.375 0.4453125,-0.375 h 0.9609375 c 0.8671875,0 1.40625,0.4570312 1.640625,0.7851562 0.3984375,0.515625 0.5273437,1.1601563 0.5273437,2.0507813 z M 11.70343,-3.5866797 v -0.28125 c -0.292969,0.035156 -0.5625,0.035156 -0.679688,0.035156 -0.257812,0 -0.527344,-0.011719 -0.785156,-0.035156 v 0.28125 c 0.410156,0.023437 0.410156,0.3398438 0.410156,0.375 0,0.1054688 -0.03516,0.1875 -0.07031,0.2578125 L 9.6760859,-0.82105469 8.6682734,-3.1648047 c -0.046875,-0.1289062 -0.046875,-0.1875 -0.046875,-0.1875 0,-0.234375 0.3046875,-0.234375 0.4921875,-0.234375 v -0.28125 l -0.9960937,0.035156 c -0.023437,0 -0.5390625,0 -0.890625,-0.035156 v 0.28125 c 0.3984375,0 0.5742187,0.023437 0.6796875,0.2578125 L 9.3245234,-7.421875e-4 9.1018672,0.52660156 C 8.9026484,1.0070703 8.6448359,1.6164453 8.0588984,1.6164453 c -0.2226562,0 -0.375,-0.1171875 -0.3984375,-0.140625 0.070312,-0.011719 0.3164063,-0.082031 0.3164063,-0.3867187 0,-0.23437504 -0.1640625,-0.37500004 -0.375,-0.37500004 -0.2226563,0 -0.3867188,0.140625 -0.3867188,0.38671874 0,0.4101563 0.375,0.7382813 0.84375,0.7382813 0.5859375,0 0.9726563,-0.5273438 1.1835938,-1.01953129 L 10.871398,-2.9655859 c 0.09375,-0.234375 0.257813,-0.5976563 0.832032,-0.6210938 z m 5.094726,3.5859375125 V -0.28199219 c -0.457031,0 -0.679687,0 -0.679687,-0.26953125 V -2.2741797 c 0,-0.75 0,-1.0078125 -0.257813,-1.3242187 -0.199218,-0.2460938 -0.550781,-0.3632813 -0.996093,-0.3632813 -0.832032,0 -1.21875,0.6210938 -1.347657,0.8671875 v -0.8671875 l -1.300781,0.09375 v 0.28125 c 0.609375,0 0.691406,0.058594 0.691406,0.5039063 v 2.39062496 c 0,0.41015625 -0.105468,0.41015625 -0.691406,0.41015625 V -7.421875e-4 C 12.638,-0.02417969 12.802063,-0.02417969 13.235656,-0.02417969 c 0.433594,0 0.550782,0 1.019532,0.0234375025 V -0.28199219 c -0.585938,0 -0.691407,0 -0.691407,-0.41015625 V -2.3210547 c 0,-0.9492187 0.679688,-1.4179687 1.242188,-1.4179687 0.527344,0 0.644531,0.4335937 0.644531,0.9726562 v 2.07421876 c 0,0.41015625 -0.09375,0.41015625 -0.691406,0.41015625 V -7.421875e-4 C 15.180969,-0.02417969 15.35675,-0.02417969 15.778625,-0.02417969 c 0.433594,0 0.550781,0 1.019531,0.0234375025 z M 21.471008,-0.79761719 V -1.3015234 h -0.246094 v 0.49218746 c 0,0.10546875 0,0.55078125 -0.328125,0.55078125 -0.316406,0 -0.316406,-0.43359375 -0.316406,-0.57421875 V -2.4030859 c 0,-0.515625 0,-0.8203125 -0.410156,-1.1835938 -0.328125,-0.2929687 -0.761719,-0.4335937 -1.207032,-0.4335937 -0.75,0 -1.382812,0.375 -1.382812,0.9492187 0,0.28125 0.1875,0.4335938 0.421875,0.4335938 0.246094,0 0.410156,-0.1757813 0.410156,-0.4101563 0,-0.3867187 -0.398437,-0.4335937 -0.398437,-0.4335937 0.246093,-0.234375 0.667968,-0.3164063 0.925781,-0.3164063 0.457031,0 0.972656,0.3398438 0.972656,1.1367188 v 0.2929687 c -0.480469,0.023437 -1.160156,0.058594 -1.757812,0.3515625 -0.644532,0.3164063 -0.84375,0.7734375 -0.84375,1.13671876 0,0.73828125 0.867187,0.97265625 1.476562,0.97265625 0.738281,0 1.078125,-0.4921875 1.207031,-0.73828125 0.04687,0.375 0.304688,0.703125 0.691407,0.703125 0.222656,0 0.785156,-0.140625 0.785156,-0.85546875 z M 19.912414,-1.2663672 c 0,0.86718751 -0.667969,1.13671876 -1.066406,1.13671876 -0.421875,0 -0.820313,-0.3046875 -0.820313,-0.75 0,-0.58593746 0.515625,-1.21874996 1.886719,-1.27734376 z m 9.178711,1.2656250125 V -0.28199219 c -0.457031,0 -0.679687,0 -0.691406,-0.26953125 V -2.2741797 c 0,-0.7851562 0,-1.03125 -0.292969,-1.3710937 -0.1875,-0.2109375 -0.550781,-0.3164063 -0.960937,-0.3164063 -0.644532,0 -1.078125,0.375 -1.335938,0.8554688 -0.105469,-0.5390625 -0.46875,-0.8554688 -1.21875,-0.8554688 -0.714844,0 -1.148437,0.46875 -1.347656,0.8789063 v -0.8789063 l -1.300781,0.09375 v 0.28125 c 0.609375,0 0.691406,0.058594 0.691406,0.5039063 v 2.39062496 c 0,0.41015625 -0.105469,0.41015625 -0.691406,0.41015625 V -7.421875e-4 C 22.364563,-0.02417969 22.528625,-0.02417969 22.962219,-0.02417969 c 0.433594,0 0.550781,0 1.019531,0.0234375025 V -0.28199219 c -0.585937,0 -0.691406,0 -0.691406,-0.41015625 V -2.3210547 c 0,-0.9726562 0.703125,-1.4179687 1.242187,-1.4179687 0.492188,0 0.65625,0.3515625 0.65625,0.9726562 v 2.07421876 c 0,0.41015625 -0.105468,0.41015625 -0.691406,0.41015625 V -7.421875e-4 C 24.91925,-0.02417969 25.083313,-0.02417969 25.516906,-0.02417969 c 0.433594,0 0.550782,0 1.019532,0.0234375025 V -0.28199219 c -0.585938,0 -0.691407,0 -0.691407,-0.41015625 V -2.3210547 c 0,-0.9726562 0.703125,-1.4179687 1.242188,-1.4179687 0.492187,0 0.65625,0.3515625 0.65625,0.9726562 v 2.07421876 c 0,0.41015625 -0.105469,0.41015625 -0.691406,0.41015625 V -7.421875e-4 C 27.473938,-0.02417969 27.638,-0.02417969 28.071594,-0.02417969 c 0.433594,0 0.550781,0 1.019531,0.0234375025 z M 33.638,-1.9108984 c 0,-1.171875 -0.925781,-2.109375 -2.027344,-2.109375 -1.148437,0 -2.050781,0.9609375 -2.050781,2.109375 0,1.12499996 0.9375,2.00390621 2.039063,2.00390621 1.136718,0 2.039062,-0.90234375 2.039062,-2.00390621 z m -0.773437,-0.082031 c 0,0.328125 0,0.8554688 -0.222657,1.25390626 -0.246093,0.41015625 -0.65625,0.5859375 -1.03125,0.5859375 -0.457031,0 -0.832031,-0.22265625 -1.03125,-0.57421875 -0.234375,-0.37500001 -0.246093,-0.85546871 -0.246093,-1.26562501 0,-0.328125 0,-0.84375 0.222656,-1.2070312 0.269531,-0.4570313 0.714844,-0.5976563 1.042969,-0.5976563 0.503906,0 0.878906,0.2929688 1.054687,0.5976563 0.210938,0.375 0.210938,0.8320312 0.210938,1.2070312 z m 7.561523,-1.0195312 c 0,-1.6992188 -1.242188,-3.1054688 -2.824219,-3.1054688 h -3.328125 v 0.2695313 h 0.199219 c 0.691406,0 0.714844,0.1054687 0.714844,0.4335937 v 4.71093751 c 0,0.328125 -0.02344,0.421875 -0.714844,0.421875 h -0.199219 v 0.2812500025 h 3.328125 c 1.558594,0 2.824219,-1.3242187125 2.824219,-3.0117187125 z m -0.890625,0 c 0,0.3632812 0,1.3125 -0.492188,1.9335937 -0.457031,0.60937501 -1.113281,0.79687501 -1.675781,0.79687501 h -0.960937 c -0.421875,0 -0.445313,-0.0585938 -0.445313,-0.36328125 V -5.4733984 c 0,-0.3046875 0.02344,-0.375 0.445313,-0.375 h 0.960937 c 0.867188,0 1.40625,0.4570312 1.640625,0.7851562 0.398438,0.515625 0.527344,1.1601563 0.527344,2.0507816 z m 7.426758,1.3828125 c 0,-0.8085938 -0.785156,-1.4648438 -1.78125,-1.5703125 0.890625,-0.1757813 1.511719,-0.75 1.511719,-1.40625 0,-0.796875 -0.855469,-1.5117188 -2.039063,-1.5117188 h -3.339844 v 0.2695313 h 0.210938 c 0.691406,0 0.703125,0.1054687 0.703125,0.4335937 v 4.71093751 c 0,0.328125 -0.01172,0.421875 -0.703125,0.421875 h -0.210938 v 0.2812500025 h 3.585938 c 1.21875,0 2.0625,-0.7968750025 2.0625,-1.6289062125 z m -1.125,-2.9765625 c 0,0.6914062 -0.597656,1.3007812 -1.441406,1.3007812 h -1.40625 v -2.1679687 c 0,-0.3046875 0.01172,-0.375 0.433593,-0.375 h 1.171875 c 0.878907,0 1.242188,0.703125 1.242188,1.2421875 z m 0.234375,2.953125 c 0,0.69140621 -0.539063,1.37109371 -1.464844,1.37109371 h -1.183594 c -0.421875,0 -0.433593,-0.0585938 -0.433593,-0.36328125 V -3.0710547 h 1.6875 c 1.042968,0 1.394531,0.8789063 1.394531,1.4179691 z m 0,0"
       style="fill:#000000;fill-opacity:1;fill-rule:nonzero;stroke:none"
       aria-label="DynamoDB"
       transform="matrix(1.3333333,0,0,1.3333333,248.14933,132.15333)" />
  </g>
</svg>
